<?xml version="1.0" standalone="no"?>
<!DOCTYPE svg PUBLIC "-//W3C//DTD SVG 20010904//EN"
 "http://www.w3.org/TR/2001/REC-SVG-20010904/DTD/svg10.dtd">
<svg version="1.0" xmlns="http://www.w3.org/2000/svg"
 width="1100.000000pt" height="1255.000000pt" viewBox="0 0 1100.000000 1255.000000"
 preserveAspectRatio="xMidYMid meet">
<g transform="translate(0.000000,1255.000000) scale(0.100000,-0.100000)"
fill="#000000" opacity="0.7" stroke="none">
<path d="M1409 12546 c-2 -3 -45 -10 -94 -16 -372 -47 -672 -157 -916 -339
-163 -121 -288 -270 -336 -401 -27 -72 -63 -243 -63 -297 0 -56 36 -277 60
-374 162 -634 683 -1399 1248 -1831 50 -39 92 -77 92 -85 0 -8 -33 -60 -74
-116 -380 -524 -688 -1143 -877 -1765 -116 -384 -187 -733 -235 -1162 -22
-196 -30 -745 -15 -966 59 -847 296 -1616 713 -2310 112 -186 173 -263 269
-339 175 -136 398 -205 668 -205 l107 0 89 -107 c121 -146 462 -486 610 -609
953 -790 2183 -1282 3775 -1508 329 -47 508 -64 1135 -106 189 -13 419 -13
555 0 58 5 177 14 265 20 609 41 1197 169 1685 367 194 78 524 244 600 302
194 147 427 414 567 649 301 507 455 1106 524 2037 16 209 16 971 0 1195 -78
1133 -311 2119 -716 3035 -271 611 -675 1258 -1027 1645 -166 181 -450 442
-609 558 l-36 26 -6 146 c-10 239 -64 405 -189 573 -95 128 -195 205 -414 319
-670 348 -1369 568 -2099 662 -408 52 -902 52 -1325 0 -945 -115 -1859 -489
-2657 -1085 -72 -55 -138 -97 -145 -94 -18 7 -202 204 -326 349 -196 230 -252
395 -252 736 0 113 8 230 24 370 14 113 28 239 32 282 7 86 -8 192 -37 248
-25 50 -96 116 -150 138 -43 19 -73 26 -207 52 -52 10 -205 14 -213 6z"/>
</g>
</svg>
