<?xml version="1.0" standalone="no"?>
<!DOCTYPE svg PUBLIC "-//W3C//DTD SVG 20010904//EN"
 "http://www.w3.org/TR/2001/REC-SVG-20010904/DTD/svg10.dtd">
<svg version="1.0" xmlns="http://www.w3.org/2000/svg"
 width="1280.000000pt" height="996.000000pt" viewBox="150 0 1280.000000 996.000000"
 preserveAspectRatio="xMidYMid meet">
<g transform="translate(0.000000,996.000000) scale(0.100000,-0.100000)"
fill="#000000" opacity="0.65" stroke="none">
<path d="M5815 9951 c-3 -5 -208 -148 -456 -316 -474 -323 -1224 -849 -1272
-894 -16 -14 -117 -135 -225 -267 l-196 -242 -153 -483 c-85 -266 -165 -536
-179 -599 -14 -63 -29 -119 -34 -124 -6 -6 -48 17 -107 58 l-98 66 -315 96
c-301 91 -330 102 -660 251 -334 151 -352 160 -560 298 -153 101 -266 186
-390 292 -174 149 -175 151 -303 331 -71 100 -206 302 -301 450 -96 147 -205
314 -244 371 l-71 104 -116 -233 c-63 -128 -120 -238 -125 -245 -8 -9 3 -33
38 -86 27 -41 111 -174 187 -297 l139 -224 162 -158 c149 -146 177 -168 370
-295 115 -76 310 -198 434 -272 193 -116 263 -151 495 -250 149 -63 290 -121
315 -128 25 -8 233 -61 463 -120 364 -92 431 -112 513 -153 58 -29 94 -52 94
-62 -1 -8 -137 -122 -303 -253 l-302 -238 -137 -312 -137 -312 -21 -405 c-18
-358 -26 -442 -66 -725 -27 -190 -74 -458 -116 -660 -77 -373 -73 -348 -88
-660 -6 -121 -15 -301 -21 -400 -9 -161 -8 -199 11 -370 20 -180 24 -198 73
-328 28 -75 56 -136 61 -134 9 3 60 136 171 444 l69 192 140 157 141 158 360
267 360 267 210 216 c116 119 218 216 226 216 24 0 317 -765 435 -1135 91
-286 108 -328 220 -559 l121 -250 184 -98 c149 -79 472 -228 495 -228 3 0 -8
25 -25 55 l-31 55 24 157 c26 166 43 234 63 240 6 2 64 -71 129 -163 174 -247
364 -485 500 -627 l121 -126 229 -138 c190 -114 288 -164 576 -295 299 -135
397 -174 690 -274 l343 -116 220 -131 c190 -112 329 -212 407 -290 10 -9 32
-17 48 -17 37 0 37 -18 5 310 -19 195 -35 302 -68 455 l-44 201 -206 389 -206
390 -106 432 c-58 237 -105 438 -105 446 0 9 3 18 8 20 4 2 81 -4 172 -14 246
-27 964 -26 1245 1 110 11 444 29 741 40 l542 21 178 -56 c172 -55 202 -69
749 -348 l570 -290 354 -261 c195 -144 358 -262 363 -264 11 -5 10 32 -2 60
-6 13 -80 362 -165 777 l-155 754 -228 485 -227 484 -295 310 c-277 291 -318
329 -660 620 -305 260 -396 344 -556 512 l-191 202 -511 378 c-347 256 -509
382 -506 391 13 32 94 72 592 293 l522 232 103 0 103 0 96 -61 c54 -33 102
-58 108 -54 6 4 10 76 10 198 0 223 14 186 -138 365 -83 98 -154 166 -353 335
-224 190 -281 232 -549 408 l-299 195 -181 39 -182 39 -332 -13 c-182 -6 -386
-15 -453 -18 -102 -5 -123 -4 -123 8 0 18 206 253 225 257 9 2 47 -4 85 -12
104 -24 100 -26 100 53 l0 70 -117 80 -118 81 -144 0 c-128 0 -169 -5 -352
-40 -301 -58 -366 -88 -938 -429 -368 -219 -470 -276 -535 -296 -45 -13 -145
-44 -223 -68 -89 -28 -145 -41 -151 -35 -6 6 -4 27 4 55 9 29 14 94 14 174 l0
129 -112 302 -113 303 -3 463 c-2 421 -6 486 -27 453z"/>
</g>
</svg>
