<svg viewBox="0 0 487 86.0792" width="5000px" height="883.7700281789416px" xmlns="http://www.w3.org/2000/svg" xmlns:xlink="http://www.w3.org/1999/xlink" preserveAspectRatio="none"><defs></defs><style>.aD6z1nYkhcolor7H0RTyQ8 {fill:#353745;fill-opacity:1;}.icon17H0RTyQ8 {fill:#AE9152;fill-opacity:1;}.icon27H0RTyQ8 {fill:#DDBB4D;fill-opacity:1;}.icon37H0RTyQ8 {fill:#987239;fill-opacity:1;}.text7H0RTyQ8 {fill:#353745;fill-opacity:1;}</style><g opacity="1" transform="rotate(0 407.79999999999995 0)">
        <svg width="79.2" height="54.0792" x="407.79999999999995" y="0" version="1.1" preserveAspectRatio="none" viewBox="8.874615669250488 20.93733024597168 81.96064758300781 55.964210510253906">
          <g transform="matrix(1 0 0 1 0 0)" class="icon17H0RTyQ8"><g display="none"><path display="inline" d="M-190.792,52.208c-0.114,0.729-1.677,1.563-1.083,1.708s0.634,1.386,1.083,1.75s1.235,0.053,1.186-0.292   s-0.061,0.646,1.898,0.667s2.417-3.208,2.417-3.208s-2.051-0.396-3.292-0.042C-189.625,53-190.679,51.479-190.792,52.208z"></path><path display="inline" d="M-197,49.333c-0.125-0.552-2.812,0.761-3.219,0.667c0.094,0.531-0.406,2.812-0.312,3.281   s1.219,0.594,1.219,0.594s0.812,1.281,1.875,1.156s3.375-1.781,3.375-1.781s-0.969-0.656-1.406-0.469S-196.438,49.812-197,49.333z"></path><path display="inline" d="M-204.094,40.594c0.812,0.469,0.906,1.125,0.906,1.125s-0.062,4.25,1,5.188s4.406,1.25,4.406,1.25   s-0.656,0.854-1.438,1.177s-3.812-0.021-5.281-2.677c-0.499-0.647-1.344-1.812-1.688-1.875S-206.281,40.25-204.094,40.594z"></path><path display="inline" d="M-209.094,37.531c0,0,1.75,3.234,3.062,4.328c-0.594,0.75-0.453,2.891-0.453,2.891   s-4.688-1.297-5.016-2.922C-212.281,38.156-209.094,37.531-209.094,37.531z"></path><path display="inline" d="M-209.484,34.203c0,0-1.797-1.516-3.5,0.375c-2.062,3.375,1.203,6.891,1.203,6.891   s-0.562-2.375,1.438-3.633C-210.641,36.109-209.484,34.203-209.484,34.203z"></path><path display="inline" d="M-201.266,37.891c0,0-0.188-0.656-1.094-1.016s-1.844-0.016-2.312,0.25s-0.391,0.688-0.516,1.125   S-205,40.575-205,40.575s0.078-0.059,0.406-0.106c-0.109-0.734-0.531-2.422,0.281-2.641S-201.266,37.891-201.266,37.891z"></path><path display="inline" d="M-178.953,47.625c0.469-0.109,0.812,0.688,1.062,0.688s0.297-0.062,0.531,0   c-0.266,0.938,0.156,2.828,0.094,3.203s-0.719,0.408-1,0.493s-0.344,1.726-0.688,1.585s-0.328,0.094-0.594,0   s-1.75,0.188-1.75,0.188s0.594-0.266,0.984-0.672s0.372-4.202,0.531-4.516S-179.422,47.734-178.953,47.625z"></path><path display="inline" d="M-187.859,49.703c0.672,0.406,1.734-0.906,2.188-0.859s0.328,0.473,0.859,0.354s1.672-2.15,1.719-2.557   s-0.953-1.953-0.984-1.688s-1.703,0.516-1.703,0.516S-188.531,49.297-187.859,49.703z"></path><path display="inline" d="M-187.781,40.328c0.188,0.578-0.562,3.25-0.672,3.938s0.078,1.781,0,2.094s-0.562,1.245-1.062,1.255   s-1.625-0.974-1.75-1.287s-1.469-0.5-1.609-0.938S-189.641,39.719-187.781,40.328z"></path><path display="inline" d="M-174.297,50.609c1.375-0.484,2.578,0.938,2.75,1.344s-1.188,2.375-1.375,2.625   S-174.688,51.062-174.297,50.609z"></path><path display="inline" d="M-168.5,44.562c0.156-0.125,1.797,0.516,1.609,1.75s-0.578,1.562-1,1.812s-2.531-0.141-2.859-0.51   C-168.391,47-168.656,44.688-168.5,44.562z"></path><path display="inline" d="M-192.469,59.359c0.062-0.391-2.969-1.328-2.969-1.328s-0.75,0.797-0.922,1.156s0.281,1.688,0.531,2.094   s1.547,0.969,1.766,1.094s0.56-0.135,0.984-0.094s1.406,0.188,1.688-0.109C-193.594,61.484-192.531,59.75-192.469,59.359z"></path><path display="inline" d="M-201.188,58.625c-0.125-0.5-2.156-2.062-2.625-2.297s-4.656,0.359-5.312,0.094s-2.375-2.672-2.375-2.672   s-0.562,2.281-0.078,2.891c-0.203,0.984,0.422,1.672,0.422,1.672s-0.443,2.067,0.969,2.281c2.312,1.688,6.797,1.031,6.797,1.031   S-201.062,59.125-201.188,58.625z"></path><path display="inline" d="M-199.531,60.297c0.062-0.359-2.359-0.219-2.672,0.297s-1.266,1.328-1.266,1.328s-0.656,2.094,0.344,2.25   c0.156,0.812,1.031,1.188,1.266,0.984c0.312,0.656,0.891,0.906,2.562,1.141s3.844-3.078,3.844-3.078s-1.109,0.625-1.406,0.688   S-199.594,60.656-199.531,60.297z"></path><path display="inline" d="M-176.938,57.781c-3.656,5.688-8.355,3.281-8.355,3.281s2.105,1.75,3.48,1.688   c0.469,0.594,0.5,1.438,3.469,0.875S-176.143,57.469-176.938,57.781z"></path><path display="inline" d="M-181.297,65.344c0,0,3.028-0.719,4.038-0.375S-175,67-174.719,67.344s-0.125,0.875-0.875,0.719   c0.062,0.5-0.875,1.438-1.666,1.25c-0.366-0.031-0.053,0.781-1.022,1.375C-180.938,70.125-181.297,65.344-181.297,65.344z"></path><path display="inline" d="M-167.25,65.594c-0.062,0.312-0.406,0.281-0.406,0.281s0.781,2.125,0.906,2.969s-0.5,1.812-1.688,2.344   c-0.062,0.781-1.031,1.094-1.031,1.094s1.281,0.875,2.062,0.969s0.781,0.094,0.812-0.781c1.25-0.25,1.75-1.469,1.688-2.344   S-166.656,65.719-167.25,65.594z"></path><path display="inline" d="M-164.094,49.781c0,0-1.719,0.781-1.562,1.5c0.375,1.781-0.812,3.906-0.812,3.906s3.188-0.469,3.625-1   s-0.438-1.375-0.438-1.375s0.75-0.406,0.625-1.062S-164.094,49.781-164.094,49.781z"></path><path display="inline" d="M-218.469,34.688c0.812-3.031,4.25-5.281,4.062-5.719s1.219-0.938-1.188-1.156s-3.062,3.281-3.062,3.281   S-220.094,33.219-218.469,34.688z"></path><path display="inline" d="M-227.156,45.344c0.219-0.75-0.969-0.938-1.969-0.594s-1.344,1.125-1.469,2.031s0.041,1.744,0.219,2.344   s0.5,3.969,1.375,4.625C-229.469,48.094-227.375,46.094-227.156,45.344z"></path><path display="inline" d="M-205.875,62c-1.708,0.208-3.458-0.583-3.458-0.583s-3.25,3.125-4.083,7.292S-211.775,75-211.775,75   s0.816,2,3.4,2s3.625-0.875,3.625-0.875s-4.5-0.5-5.458-2.583s-0.03-4.351,0.542-5.375S-207.75,64.625-205.875,62z"></path><path display="inline" d="M-204.531,76.156c0.583,0.197,0.851-0.312,0.851-0.312s0.628,0.586-0.236,1.949s-4.167,0.543-5.75,0   s-2.802-3.012-2.396-2.699S-209.766,79.062-204.531,76.156z"></path><path display="inline" d="M-203.68,61.874c0,0-1.236,0.104-1.923,0.083c-0.434,0.273-3.396,5.333-3.396,5.333   s4.083-2.562,5.646-2.958C-204.291,63.791-203.68,61.874-203.68,61.874z"></path><path display="inline" d="M-201.895,65.666c-0.188-0.146,0.008-0.102-0.104-0.271c-0.729-0.021-0.958-0.521-1.25-0.917   c-0.652,0.037-5.919,3.062-5.919,3.062s-1.081,1.333-1.268,4.292s4.271,3.938,4.271,3.938s-3.875-1.291-2.833-4.083   s1.729-2.562,2.646-3.271S-201.708,65.812-201.895,65.666z"></path><path display="inline" d="M-189.146,55.958c0,0-0.167,0.062-0.461-0.25c-0.331,0.312-0.685,0.25-0.685,0.25   s-1.089,3.328-2.089,3.516c-0.125,0.854-0.885,1.885,1.085,2.492C-188.946,60.695-189.146,55.958-189.146,55.958z"></path><path display="inline" d="M-176.625,62.422l2.109,4.078c0,0,0.121,0.244,0,0.844c-1.734-2.609-3.203-2.609-3.203-2.609   S-176.641,62.953-176.625,62.422z"></path><path display="inline" d="M-176.844,62.781c-0.556,1.113-2.262,1.195-3.125,1.195c-1.358-0.001-1.973-0.705-1.953-1.086   c-0.297,0,0.32,2.297,0.625,2.281c1.047-0.375,3.406-0.438,3.406-0.438S-176.82,62.954-176.844,62.781z"></path><path display="inline" d="M-178.969,70.688c-2.125-0.344-2.531-4.656-2.594-5.375c-0.572-0.095-0.656-2.375-0.656-2.375   l-0.625-0.156c0,0,3.375,17.696,5.125,18.196C-178.656,77.509-178.781,74.188-178.969,70.688z"></path><path display="inline" d="M-175.094,64.883c0,0,0.625,0.867,0.812,1.742s-0.181,1.281-0.181,1.281s3.493,4.438,4.649,4.375   c1.198-0.61,0.951-0.368,1.094-1.219c3.125-1.188,0.5-4.906,0.875-5.219C-170.969,67.062-175.094,64.883-175.094,64.883z"></path><g display="inline"><path d="M-152.75,69.16c-0.156-1.401-1.344-1.817-1.75-0.86c-0.33,0.778-3.382,2.629-4.516,3.297    c0.257,0.128,0.49,0.214,0.672,0.214c1.188,0,0.781-0.938,1.562-0.719c0.55,0.154,0.656,1.38,0.363,2.063    C-154.677,71.973-152.654,70.021-152.75,69.16z"></path></g><path display="inline" d="M-166.344,64.875c-0.25,0.531-0.656,0.531-0.656,0.531s2.25,2.406,2.312,5.281   c-0.304,0.88-0.219,1.656-1.719,1.969c0.125,0.625-0.25,0.812-0.25,0.812s3.344,2.125,5.062,2.062s3.281-0.469,4.5-1.719   c0.531-0.344,1.062-2.219,0.281-2.438s-0.375,0.719-1.562,0.719C-160.156,72.094-166.031,65.281-166.344,64.875z"></path><path display="inline" d="M-164.703,62.516c0,0,0.109,1.047-1.469,2.109c0.969,1.766,6.812,6.891,6.812,6.891   s1.484-0.702,1.734-1.046C-158.078,67.219-164.703,62.516-164.703,62.516z"></path><path display="inline" d="M-163.828,63c0,0,6.125,4.453,6.438,7.344c0.734-0.406,2.141-1.359,2.562-1.906   c-0.672-0.609-3.469-2.703-5.109-4.062C-161.766,64.594-163.828,63-163.828,63z"></path><path display="inline" d="M-186.02,76.542c0,0-3.938,6.062-6.562,6.646s-4.521-0.792-4.771-0.75s0.021,0.208-0.083,0.562   s-0.479-0.542-0.604,0.062s0.646,1.5,1.125,1.833s2.229,0.563,6.646-1.417S-186.02,76.542-186.02,76.542z"></path><path display="inline" d="M-191.938,67.782c0.146,0.01,0.542,6.135,0.188,8.218c-0.479,1.625-2.417,3.083-4.229,3.708   s-4.042-0.417-4.042-0.417S-192.458,75.542-191.938,67.782z"></path><path display="inline" d="M-192.271,62.52c0,0,0.766,0.165,1.104-0.334c0.932-0.358,1.687-2.479,1.687-2.479   s0.319,4.896,0.271,6.602s-0.208,7.44-0.208,7.44s-2.594-6.776-2.62-7.217s-0.234-3.906-0.234-3.906"></path><path display="inline" d="M-193.854,80.978c0,0,3.76-1.587,4.417-7c-0.359-0.165-2.599-6.937-2.599-6.937s1.052,3.413,0.429,9.069   C-191.656,77.484-193.854,80.978-193.854,80.978z"></path><path display="inline" d="M-203.328,48.422c0,0-1.328,1.016-1.656,1.234s-2.5,3.188-2.859,5.203c-0.156,0.391,0.062,1.078,0,1.297   s-0.891,0-1.141,0s-1.746-1.385-2.344-2.609C-210.844,52.344-203.328,48.422-203.328,48.422z"></path><path display="inline" d="M-227.13,45.734c-1.276,1.453-1.903,6.719-1.754,8.234c1.04,1.25,1.696,1.766,3.696,2.75   c7.875,2.094,13.25-0.234,13.25-0.234s-0.266-1.781,0.297-2.984s3.297-2.453,3.297-2.453s-3.75,0.266-5.375-0.172   c-0.172-0.078-3.847,1.22-4.141,1.281s-5.641,1.266-7.688,0.047S-227.328,47.672-227.13,45.734z"></path><path display="inline" d="M-214.094,50.734l-1.469-0.891c0,0-3.328,1.125-4.031,1.25s-3.469,0.062-4.141-0.219   s-3.396-3.172-3.396-3.172s0.086,3.807,1.786,4.406c2.094,0.828,6.188,0.252,7.312-0.109S-214.094,50.734-214.094,50.734z"></path><path display="inline" d="M-204.5,47.063l1.062,1.229l-4.688,2.521c0,0-4.439,0.198-5.646-0.208   c-2.307-0.588-5.25-4.812-5.542-6.104c-0.542-4.312,1.687-5,2.396-5.125s2.313,5.521,6.229,6.708S-204.5,47.063-204.5,47.063z"></path><path display="inline" d="M-204.708,46.813c-0.083-0.229-0.625-0.771-0.625-0.771l-2.625,0.385   C-207.958,46.428-205.333,47.105-204.708,46.813z"></path><path display="inline" d="M-214.396,29.438c0,0-2.668,2.803-2.854,3.188s-1.042,2.042-1.146,2.375s0.146,0.669,0.604,1.72   s3.104,3.363,4.854,3.613c-0.833-1.188-1.021-3.396-1.021-3.396s-2.146-1.917-1.708-3.729S-214.396,29.438-214.396,29.438z"></path><path display="inline" d="M-215.02,31.688c0,0-1.354,3.083,1.104,4.917c-0.042-1.292,0.646-1.792,0.792-2.25   C-213.958,34.042-215.02,31.688-215.02,31.688z"></path><path display="inline" d="M-205.217,37.271c-0.47,1.458,0,3.304,0,3.304l-0.814,0.894c0,0-2.795-3.461-2.905-4.198   c-0.188-0.208-1.167,0.278-1.167,0.278s-0.013-1.173,0.619-2.861C-207.853,36.271-207.747,37.521-205.217,37.271z"></path><path display="inline" d="M-199.374,41.562c-1.521-0.979-2.167-3.484-2.167-3.484s-2.589-0.257-2.917,0.109   s0.146,2.146,0.146,2.146s0.854,0.104,1.25,0.979C-202.124,41.041-200.999,41.291-199.374,41.562z"></path><path display="inline" d="M-202.603,56.874c0,0,0.062-0.496-1.167-0.832s-3.771,0-3.771,0s-0.229-0.356,0-0.835   s6.997-4.125,6.997-4.125s-0.476,1.646-0.268,2.292s0.792,0.652,0.792,0.652L-202.603,56.874z"></path><path display="inline" d="M-207.498,54.77c0,0,1.326-3.805,2.79-4.917s1.564-1.188,1.564-1.188s1.388,0.834,2.708,0.938   c-0.042,0.542-0.062,0.854-0.107,1.125C-202.269,51.249-207.498,54.77-207.498,54.77z"></path><path display="inline" d="M-202.353,57.041l2.542-2.896h0.354c0,0,0.431,0.915,1.042,0.896c-0.521,0.917-2.768,4.5-2.768,4.5   s0.205-0.813,0.226-1.208S-202.353,57.041-202.353,57.041z"></path><path display="inline" d="M-195.453,63.031l0.297-0.938c0,0-0.469,0.094-0.969-0.531s-0.781-1.844-0.625-2.469   s1.594-1.501,1.594-1.501l1.302-4.092c0,0-3.033,1.594-3.449,1.812s-0.822-0.062-0.822-0.062l-3.058,4.625   c0,0,1.339-0.306,1.745-0.168s2.102,3.887,2.625,3.731S-195.453,63.031-195.453,63.031z"></path><path display="inline" d="M-194.875,57.75c0,0,1.062-3.532,1.406-4.25c0.969-0.5,2.281-1.837,2.281-1.837v0.675   c0,0-1.25,0.975-1.312,1.443s0.489,0.238,0.656,0.531s1.107,1.941,1.107,1.941s-0.898,2.653-1.534,2.809   C-193.094,58.25-194.875,57.75-194.875,57.75z"></path><path display="inline" d="M-200.384,79.094c1.062-0.438,6.946-3.312,8.113-11.312c-0.166-2.374-0.358-5.125-0.358-5.125   s-1.017-0.125-1.226,0.125S-195,62.422-195,62.422s-1.219,6.391-1.875,7.828s-3.896,4.969-4.308,5.75S-201.05,79.06-200.384,79.094   z"></path><path display="inline" d="M-187.833,56.253c-0.333,0.329-1,0-1,0l-0.369,3.287c0,0,0.551,8.5,0.369,11.975   c-0.4,2.074,0.167,7.275-5.021,9.817c-0.729-0.333-1.599,0-1.599,0l-1.588,0.875c0,0,3.055,1.125,4.236,0.708   s3.721-2.38,6.787-6.917c3.935-3.25,2.185-13.577,2.185-13.577s-1.5-0.759-1.875-1.632S-188.083,58.499-187.833,56.253z"></path><path display="inline" d="M-171.833,87.207c-0.625,0.542-1.958,0-1.958,0s-2.016-1.424-2.299-2.09s-1.222-2.868-1.222-2.868   s0-0.468-1.104-1.271c-1-0.52-4.693-18.196-4.693-18.196l-0.438-0.156c0,0,0.401,4.888,0.297,7.006s-1.047,4.377-1.047,4.377   s2.953,11.47,4.875,13.491s3.547,2.292,3.547,2.292S-170.749,89.54-171.833,87.207z"></path><path display="inline" d="M-177.188,57.688c0.156,0.016-3.359,5.688-8.5,2.781c-1.172-1.578-1.842-2.352-1.953-4.215   c1.969-0.191,2.469-2.878,2.469-2.878s0.669,3.623,2.5,5.578S-177.859,57.594-177.188,57.688z"></path><path display="inline" d="M-188.229,46.126c0,0-0.306,2.667,0.264,2.625c0.424-0.625,1.361-2.833,2.07-3.542   C-186.938,44.417-188.229,46.126-188.229,46.126z"></path><path display="inline" d="M-185.292,52.563c0.522-0.438,0.126-3.13,0.126-3.13s-0.067-0.315-0.542-0.236   c-0.5,0.637-1.708,0.739-2.146,0.803s-0.271-0.999-0.271-0.999s0.036-0.137-0.312-0.25c-0.646,0.875-1.083,3.586-1.083,3.586   s0.385,0.287,0.771,0.226C-188.208,52.313-186.062,52.459-185.292,52.563z"></path><path display="inline" d="M-190.979,51.293c0.115-0.357,1.125-3.5,1.125-3.5s0.937,0.208,1.354-0.907   c-0.124,0.269,0.125,1.052,0,1.536c-0.646,0.288-1.24,3.697-1.24,3.697S-191.093,51.65-190.979,51.293z"></path><path display="inline" d="M-193.708,53.209c0.312,0.083,2.25-1.424,2.375-1.771S-190,47.73-190,47.73s-0.771-0.333-0.885-0.583   c-0.218,1.062-3.531,5.562-3.531,5.562S-194.02,53.126-193.708,53.209z"></path><path display="inline" d="M-198.291,49.085c0,0,0.955-0.875,0.988-1.167c1.283-0.167,5.2-1.771,5.2-1.771s0.542,0.093,0.562,0.317   s0.461,0.426,0.417,0.558c-0.608,1.774-3.583,5.55-3.583,5.55l-0.625-0.092c0,0-1.208-3.416-1.604-3.521   S-198.291,49.085-198.291,49.085z"></path><path display="inline" d="M-192.687,44.293l-1.376-0.625l-5.083-1.833l-3.812-0.272c0,0-0.056,3.762,0.91,4.903   s4.382,1.432,4.382,1.432s4.604-1.479,5.208-1.854C-193.999,45.751-192.687,44.293-192.687,44.293z"></path><path display="inline" d="M-192.562,44.064l0.458-0.5v-1.583c0,0-1.562-1.416-1.479-3.646s1.104-3.667,0.854-3.833   s-2.042,0.667-2.479,1.438s-0.563,3.631-0.417,5.201s1.292,2.153,1.292,2.153l1.688,0.771"></path><path display="inline" d="M-195.874,40.731c-0.188,1.458,0.854,2.333,0.854,2.333l-4.104-1.502c0,0-1.7-1.227-2.142-3.414   c0.475,0.188,0.309-0.07,0.309-0.07l-0.604-1.097c0,0,1.854-3.458,2.458-2.854S-199.895,40.064-195.874,40.731z"></path><path display="inline" d="M-200.833,35.336c0,0-0.667,1.167-0.979,1.5c-0.562-0.479-1.854-0.312-1.854-0.312   s-1.688-5.583,1.417-6.75s3.25,0.312,3.25,0.646s-1.979,0.646-2.146,1.979S-200.833,35.336-200.833,35.336z"></path><path display="inline" d="M-189.437,40.575c-1.25,0.636-2.438,2.49-2.438,2.49s0.146-1.401,0-1.502s2.854-5.414,5.188-5.476   C-188.624,37.919-188.187,39.938-189.437,40.575z"></path><path display="inline" d="M-188.166,40.065c0,0,1.312-2.646,1.625-2.792s0.417-0.479,0-1c-0.833,0.312-2.146,3.896-2.146,3.896   L-188.166,40.065z"></path><path display="inline" d="M-187.965,40.065c0,0-0.013-0.041,0.341,0.104s-0.687,4.292-0.687,4.292v1.229   c0,0,0.832-0.743,1.208-0.767c-0.021-1.378,1.575-4.644,1.575-4.644s0.863-2.151,0.78-3.005   C-186.062,36.732-187.965,40.065-187.965,40.065z"></path><path display="inline" d="M-187.916,35.253c0,0,0.042-0.542-1.229-0.667s-2.479,0.979-4.062,2.627   c-0.625,2.102,0.938,4.348,0.938,4.348s0.23,0.146,0.271-0.351C-191.791,38.399-187.916,35.253-187.916,35.253z"></path><path display="inline" d="M-193.355,34.356c0,0-1.562,0.604-2.062,1.312s-0.562,4.25-0.521,4.906   c-0.509,0.019-1.542-0.798-1.542-0.798s-0.062-3.44,1.333-4.815s3.062-1.5,3.062-1.5s0.541,0.062,0.521,0.333   S-193.355,34.356-193.355,34.356z"></path><path display="inline" d="M-193.104,36.72c0,0,0.564-1.908,0.646-2.24s-0.188-0.228-0.188-0.228s0.417-0.479,0.292-0.792   s5.229,0.604,3.208,0.792S-193.104,36.72-193.104,36.72z"></path><path display="inline" d="M-197.703,39.575c0,0-1.109-1.638-0.984-3.302s1.562-4.273,3.172-4.367s2.078-0.188,2.766,0.547   s0.078,0.828,0.078,0.828s-2.344-0.047-3.969,1.922C-197.781,36.875-197.703,39.575-197.703,39.575z"></path><path display="inline" d="M-192.103,33.209c0,0-0.444-1.053-0.881-1.193s2.438-1.359,3.812-0.344c0.359,0.375-1,0.562-1.266,0.875   s0.219,0.914,0.219,0.914L-192.103,33.209z"></path><path display="inline" d="M-199.374,33.859c0,0,0.203-0.141,0.375,0s0.302,1.438,0.302,1.438s1.135-3.854,2.213-4.026   c1.685-0.494,1.234-0.505,1.984-0.365c0.688,0.129,0.47,0.875,1.145,0.844s0.73-1.281,0.73-1.281s-0.14-2.297-3.375-1.297   S-199.374,33.859-199.374,33.859z"></path><path display="inline" d="M-197.859,33.461c0,0,0.722-1.79,1.203-1.961s1.305-0.484,1.637-0.5s0.707,0.156,0.707,0.156   s0.204,0.046,0.312,0.438C-196.859,31.344-197.859,33.461-197.859,33.461z"></path><path display="inline" d="M-200.625,31.843c0.781,0.313,1.251,0.523,1.251,0.523s-0.251,1.04-0.251,1.54c-0.344,0-1,1.152-1,1.152   S-201.375,32.28-200.625,31.843z"></path><path display="inline" d="M-214.875,27.625H-216c0,0-3.594-5.031-2.062-8.125c0.209-0.425,1.546-3.594,3.804-2.5   c0.165,0.344,0.708,0.438,0.092,1.344C-216.531,22.594-214.875,27.625-214.875,27.625z"></path><path display="inline" d="M-214.359,29.719c0,0,0.14-0.312,0.101-0.625S-214,28.516-214,28.516s0.891,1.922,1.844,3.172   C-212.656,31.406-214.359,29.719-214.359,29.719z"></path><path display="inline" d="M-216.281,27.625c-0.672-0.797-1.234-2.156-2.161-4.594c-2.058,0.75-0.073,6.797-0.073,6.797   S-217.859,27.875-216.281,27.625z"></path><path display="inline" d="M-214.75,20.469c-0.958,3.135,0.167,7.156,0.167,7.156s0.363,0.103,0.704,0.75s1.005,1.958,1.963,3.468   s6.833,5.175,6.833,5.175s0.438-0.414,1.125-0.414c-1.271-4.083,0.375-6.208,0.375-6.208s-0.979-1.479-2.75-2.104   C-210.167,27.854-213.271,23.333-214.75,20.469z"></path><path display="inline" d="M-197.719,29.828c0,0-7.094-8.703-8.812-8.922s-2.562,1.292-2.562,1.292s1.562-0.151,1.969,0.271   s0,1.562,0.438,2.438S-197.719,29.828-197.719,29.828z"></path><path display="inline" d="M-207.344,22.5c-0.221-0.242-0.766-0.094-1.859-0.094c-0.609,0.984,2.641,5.703,2.641,5.703   s0.156-0.109,0.312,0c0.938,0.109,2.844,2.094,2.844,2.094s2.391-1.5,3.547-1s1.018,0.51,1.031,1.312   c-0.703,0.547-1.688,1.172-1.688,1.172s0.984,0.21,1.25,0.542c-0.031-0.449,1.406-2.199,1.406-2.199s-8.766-4.391-9.016-4.891   S-207.123,22.742-207.344,22.5z"></path><path display="inline" d="M-192.423,31.271c0,0,1.017-0.333,2.017-0.272c0.562-1.78-7.144-13.562-7.884-14.437   s-4.803-3.719-5.491-2.562s2.406,5.031,3.156,5.594s4.312,6.719,4,9.326C-191.281,27.656-192.423,31.271-192.423,31.271z"></path><path display="inline" d="M-180.016,48.751c0,0-0.268,3.949-0.453,4.186s-0.174,0.431-1.094,0.734   c-0.953-0.234-3.344-3.162-3.344-3.162s0.062-0.697-0.116-1.088c0.257,0.094,0.788-0.297,0.788-0.297s1.328,2.205,2.234,2.087   S-180.016,48.751-180.016,48.751z"></path><path display="inline" d="M-178,57.769c-0.703-0.628-1.766-3.894-1.766-3.894s-1.188,0.395-1.969,0.15s-3.078-2.813-3.078-2.813   s0.08,1.319-0.21,1.804c0.054,0.683,1.862,6.406,3.511,6.297S-178.703,58.234-178,57.769z"></path><path display="inline" d="M-165.104,60.542C-164.521,60.667-165,63-165,63s-2.56,3.14-5.312,2.959   c-1.646-0.104-4.979-1.521-4.979-1.521l-1.083-2.188c0,0,1.354-3.292-0.468-4.915c-0.615,0.019-0.302,0.165-0.875,0.248   s-1.703-3.625-1.703-3.625s0.983,0.021,1.109-0.584S-170,62.688-165.104,60.542z"></path><path display="inline" d="M-180.016,48.312c0,0-1.922-0.891-2.875-1.359c-0.094,0.672-1.141,1.969-1.141,1.969s1.328,1.969,1.844,2   C-181.448,50.912-180.016,48.312-180.016,48.312z"></path><path display="inline" d="M-174.562,50.698c-0.797,0.052-2.62-1.229-2.62-1.229s0.433,2.047,0.183,2.406s-0.922,0.422-1.125,0.422   s-0.109,0.828-0.109,0.828s4.234,1.953,4.938,1.547C-174.234,54.109-174.469,51.656-174.562,50.698z"></path><path display="inline" d="M-172.703,54.728c0,0,1.5-2,1.531-2.629c1.828,0.246,4.328-0.52,5.234-0.886   c0.203,0.538-0.062,3.46-0.891,4.147S-172.703,54.728-172.703,54.728z"></path><path display="inline" d="M-173.042,54.854c-1.354,0.521-4.5-1.183-4.5-1.183s7.396,6.829,9.562,6.829   C-169.459,59.271-171.875,57.167-173.042,54.854z"></path><path display="inline" d="M-165.873,55.333c0,0-0.253,0.062-0.691,0.225c-1,0.796-5.625-0.266-6.14-0.558   c0.098,0.875,4.682,5.417,5.057,5.5s2.083-0.021,2.746-0.271c0.65-0.021,0.442,2.104,0.442,2.104s3.021,2.125,4.688,1.812   c0.333-0.021,0.333,0.292,0.333,0.292s6.896-1.021,4.042-5.562c-1-0.479-1.188,0-1.938,0.125S-165.873,55.333-165.873,55.333z"></path><path display="inline" d="M-183.092,45.69c0.259,0.207,0.321,1.041,0.321,1.041s2.611,1.249,2.979,1.271   c0.083-0.312,0.514-0.479,0.514-0.479s-0.056-0.458-0.285-0.875S-183.351,45.483-183.092,45.69z"></path><path display="inline" d="M-177.063,49.021c0,0,1.271-2.188,1.438-2.75c0.688-3.375-0.354-4.375-0.719-4.354   s-1.678,3.042-2.136,3.552s-1.917,0.427-1.917,0.427s0.792,0.25,1.021,0.479s0.354,0.977,0.354,0.977s1.124,0.344,1.188,0.649   s0.604-0.062,0.771,0S-177.063,49.021-177.063,49.021z"></path><path display="inline" d="M-176.855,49.167c0,0,2.354-1.762,2.958-2.214s2.292-2.286,2.229-3.536   c0.021-0.542-1.342-1.959-1.629-1.854s-0.371,1.188-1.871,2.984C-174.917,47.271-176.855,49.167-176.855,49.167z"></path><path display="inline" d="M-172.876,41.558c0,0,1.375,0.527,1.479,1.985c1.146-1.292,2.042-3.954,1.604-5.321   s-3.562-1.565-3.625-1.008s1.084,1.641,1.229,2.099S-172.876,41.558-172.876,41.558z"></path><path display="inline" d="M-178.688,38.222c0.042,0.342,1.062,0.467,1.833,1.509s0.354,1.938,0.354,1.938s1.375-0.063,1.312,2.479   c1.216-1.533,1.417-2.542,1.646-2.792s0.354-0.042,0.354-0.042s0.313-3.021-1.771-4S-178.73,37.879-178.688,38.222z"></path><path display="inline" d="M-176.042,36.72c0.854,0.053,1.979,0.949,1.979,0.949s0.562,0.104,0-1.104s-2.458-0.771-2.562-0.479   S-176.165,36.662-176.042,36.72z"></path><path display="inline" d="M-183.605,45c0,0-0.206-0.664-0.426-0.372s-1.199,0.438-1.595,0.479c-0.25-0.5-0.688-0.479-1.167-0.377   c-0.458-0.519,1.771-4.79,1.771-4.79s0.417-2.116,1.313-3.017s1.771,0.07,1.771,0.07s1.646,3.009,0.854,4.822   S-183.605,45-183.605,45z"></path><path display="inline" d="M-181.192,37.96c0,0,1.502-0.683,2.502-0.289c-0.229,0.248-0.508,0.392-0.291,0.706   c0.562,0.458,2.435,1.375,2.342,3.396c-1.197,1.667-2.176,3.696-2.176,3.696s-1.458,0.137-2.229,0.325   c-0.833-0.417-2.063-0.325-2.063-0.325l-0.292-0.363c0,0,2.729-1.854,2.771-4.042S-181.192,37.96-181.192,37.96z"></path><path display="inline" d="M-185.376,34.48c0.375,0.709-0.562,0.604-0.979,1.521c-2.562-0.5-5.271,4.573-5.271,4.573   s0.062-1.678,3.875-5.278c0.062-0.524-0.75-0.92-0.75-0.92S-185.751,33.771-185.376,34.48z"></path><path display="inline" d="M-186.687,37.855l0.561-0.729c0,0,0.229-0.562-0.14-0.853c0.223-0.501,1.39-1.08,1.369-1.697   s1.937-0.43,2.104-0.096s-0.506,1.583-1.646,2.979C-184.876,36.126-186.687,37.855-186.687,37.855z"></path><path display="inline" d="M-182.543,34.835c-0.083,0.583-0.854,1.583-0.854,1.583s1.646-0.618,2.084,1.253   c0.116-2.085,0.229-2.139,0-2.613S-182.46,34.252-182.543,34.835z"></path><path display="inline" d="M-181.043,37.549c0,0-0.09-1.166,0.174-2.252s3.2,2.288,2.18,2.059S-181.043,37.549-181.043,37.549z"></path><path display="inline" d="M-182.605,34.293c-0.896-0.771-2.458-0.157-2.458-0.157s2.868-3.656,4.194-3.864s1.764-0.271,1.889,0.188   s0.021,1.247-0.479,1.384s-0.396-0.238-0.792-0.259S-181.876,32.647-182.605,34.293z"></path><path display="inline" d="M-185.376,34.136c-1.208-0.51-2.375,0-2.375,0s0.167-5.948,0.542-6.635s1.229-1.208,1.833-1.229   s2.188,2.896,1.875,3.354s-1.161-0.479-1.789-0.062S-184.646,33.334-185.376,34.136z"></path><path display="inline" d="M-189.607,32.366c0,0-0.186,0.76-0.082,1.03c0.958,0.334,1.23,0.646,1.23,0.646s0.332,0.083,0.437,0   c-0.167-0.625,0.105-2.521,0.105-2.521s-0.439-0.5-1.001,0C-188.834,32.334-189.607,32.366-189.607,32.366z"></path><path display="inline" d="M-181.271,34.668c0,0,1.036-2.375,0.938-2.708s0.75,0.279,1.104,0.244s0.909-1.931,0.298-2.202   s-1.34-0.188-1.34-0.188s0.354-2.146,0.729-2.5s0.51-0.521,1.067,0s1.35,10.39,0.391,9.403s-2.292-1.862-2.5-1.883   s-0.391,0.375-0.474,0.224S-181.271,34.668-181.271,34.668z"></path><path display="inline" d="M-182.289,34.293c0,0,1.561-2.483,1.758-2.408s-0.531,1.678-0.879,2.596   C-181.806,34.396-182.289,34.293-182.289,34.293z"></path><path display="inline" d="M-176.938,36.787c0,0-0.458-0.017-0.698,0.137c0.969-3.507-0.511-9.94-0.511-9.94   s4.396-5.607,5.354-5.566s1.542,0.584,1.917,1.375s-1.393,8.024-2.297,9.208s-1.994,2.75-3.14,3.562   C-177.208,35.479-176.938,36.787-176.938,36.787z"></path><path display="inline" d="M-160.719,44.923c0.188-0.188,0.406,0,0.406,0s1.156-0.079,1.062,2.03s-4.125,3.203-4.125,3.203   l-0.562-0.688c0,0-1-1.156-3.656-1.265c0.688-0.11,0.906-1.376,0.906-1.376s5.031-0.265,5.531-0.671   S-160.906,45.111-160.719,44.923z"></path><path display="inline" d="M-169.391,46.5c0.046,0.311-1.344,1.062-1.656,1.078s-2.609-0.539-2.609-0.539s1.08-0.827,1.094-1.18   C-171.969,46.047-170.844,46.438-169.391,46.5z"></path><path display="inline" d="M-164.234,49.562c0,0-2.444-1.328-3.746-1.094s-3.083-0.688-3.083-0.688s-1.781-0.391-2.781-0.578   c-0.906,0.562-2.906,2.266-2.906,2.266s0.828,0.797,2.25,0.953c1.703-1.031,3.234,1.422,3.234,1.422s2.141,0.375,5.312-0.953   C-165.359,50-164.234,49.562-164.234,49.562z"></path><path display="inline" d="M-168.813,45.156c-0.062,0.594-0.062,0.594-0.484,1.219c-0.73,0.075-3.094-0.719-3.094-0.719   s0.375-0.478,0.516-0.817C-171.031,45.031-170.344,45.219-168.813,45.156z"></path><path display="inline" d="M-166.875,45.422c0,0,0.454,0.703,0.25,1.141c0.703-0.016,3.707-0.12,4.938-0.422   C-162.484,45.781-166.875,45.422-166.875,45.422z"></path><path display="inline" d="M-159.516,48.109c0,0,0.422-0.438,0.438-0.906c2.203,0.453,2.062,1.953,2.406,2.578   c0.031,2.188-1.125,2.453-1.422,2.406s-0.094-2.17-0.188-2.64S-159.516,48.109-159.516,48.109z"></path><path display="inline" d="M-160.75,44.547c-0.354,0.099-0.292,0.292-0.292,0.292s0.168,1.253-0.479,1.153   c-0.917-0.43-5.354-0.825-5.354-0.825s-1.5-1.021-1.708-0.917s-0.229,0.417-0.229,0.667c-0.667,0.251-2.853-0.25-2.853-0.25   s0.281-0.576,0.27-0.896c1.083-0.312,1.716-3.083,1.716-3.083S-161.292,40.375-160.75,44.547z"></path><path display="inline" d="M-169.542,40.333c0,0,0.5-1.562-0.417-3.042c1.857-0.851,11.938-1.25,13.542-0.146   s2.188,1.688,1.938,2.729s-3.614,2.75-3.614,2.75s-1.927,0.562-3.24,0C-164.604,39.792-169.542,40.333-169.542,40.333z"></path><path display="inline" d="M-173.312,38.146h-0.25c0,0,0.771,2.188,0.562,2.938c0.521-0.854,0.501-1.202,0.609-1.583   S-173.312,38.146-173.312,38.146z"></path><path display="inline" d="M-158.541,50.51c-0.271,1.344,0.042,1.59,0.292,2.04c1.188,0.408,2.021-2.237,2.021-2.237   s4.021-0.042,4.396-0.312c-0.271,0.312,0,0.271,0,0.271s1.105-0.336,1.125,0.239c1.042,1.011,0.625,3.011,0.125,3.615   s-5.583,2.062-6.792,2.021s-5.917-1.418-5.917-1.418s0.833-0.332,0.875-0.79s-0.521-1.042-0.521-1.042s0.521-0.562,0.583-0.917   s-0.583-1.208-0.583-1.208S-159.229,51.02-158.541,50.51z"></path><path display="inline" d="M-151.52,49.698c-0.104,0.198-0.104,0.198-0.104,0.198s0.813-0.041,0.979,0.261   c0.099,0.18,0.167,0.302,0.167,0.302s1.208,1.25,0.229,3.688c-0.458,0.646-4.562,1.833-4.562,1.833s4.407-0.479,5.146-1.75   s1.583-1.896,0.75-3.479S-151.416,49.5-151.52,49.698z"></path><path display="inline" d="M-159.687,48.312c0.837,0.427,1,1.097,1.146,1.236s0,0.41,0,0.743c-0.95,0.471-4.562,0.292-4.562,0.292   l-0.188-0.188C-163.291,50.396-160.095,49.435-159.687,48.312z"></path></g><g display="none"><g display="inline"><path d="M-75.875,27.625c-0.031,2.219,1.771,2.801,2.292,2.792s0.539-0.657,0.333-1s-0.768-1.214-0.708-1.583    s0.208-2.021,1.333-2.667C-75.281,24.656-75.777,26.457-75.875,27.625z M-74.25,29.229c0,0-0.979-1.125-0.834-1.688    s0.625-1.229,1.292-1.625C-74.812,27.062-74.25,29.229-74.25,29.229z"></path><path d="M-76.688,24.188c0.191-0.016,0.5-0.359,0.5-0.359s0.922,0.297,1.102,0.109c0.273,0.281,1.43,0.672,1.617,0.797    S-73,24.688-72.953,24.5s-0.094-0.406-0.172-0.5s-0.09,0.197-0.328,0c-0.281-0.609-1.688-1.469-2.172-1.469    s-0.5,0.594-0.703,0.828s-0.703-0.047-0.891,0.062S-77.266,24.188-76.688,24.188z"></path><path d="M-84.625,32.641c0.273-0.3,6.578-7.219,7.812-8.328c-0.422,0.031-0.625-0.484-0.625-0.484s-6.75,7.453-6.969,7.516    s-0.25-0.297-0.391-0.125s0.062,0.547,0,0.766s-0.5,0.406-0.5,0.406S-84.898,32.94-84.625,32.641z"></path><path d="M-88.505,39.688c0,0,1.441-3.734,1.749-4.167s2.272-2.833,1.917-2.688s-0.542-0.312-0.542-0.312s-2.02,3-2.271,3.125    s0,0.25,0,0.25s-1.249,2.937-1.292,3.479C-88.929,39.563-88.505,39.688-88.505,39.688z"></path><path d="M-88.942,42.604C-88.831,42.791-88.581,40-88.581,40s-0.458-0.187-0.479-0.312c-0.375,0.375-0.521,2.916-0.521,2.916    S-89.054,42.416-88.942,42.604z"></path><path d="M-88.977,45.854c0,0,0.125-2.938,0-3.062s-0.604,0-0.604,0s-0.145,2.812,0.188,3.062S-88.977,45.854-88.977,45.854z"></path><path d="M-88.921,46.062c-0.159,0.312-0.43,0.083-0.43,0.083s0.194,2.063,0.43,2.271s0.34,0,0.34,0S-88.762,45.749-88.921,46.062z    "></path><path d="M-82.281,7.594c0.344,0.094,0.625,2.812,0.625,2.812h0.312c0,0-0.312-2.844-0.031-3.188    C-80.75,7.094-80.5,6.344-80.5,6.344s-1.249,0.408-1.531,0.5s-1.094-0.312-1.094-0.312S-82.625,7.5-82.281,7.594z"></path><path d="M-86.83,52.811c0.292,0.062,0.333,0.021,0.229-0.188s-1.604-3.792-1.875-3.938c-0.354,0-0.354,0-0.354,0    S-87.122,52.749-86.83,52.811z"></path><path d="M-81.208,12.375c0.271,0.042,0.312-0.167,0.312-0.167s-0.162-1.471-0.396-1.667c-0.5-0.042-0.521,0.167-0.521,0.167    S-81.479,12.333-81.208,12.375z"></path><path d="M-80.609,12.141c0,0.125-0.305,0.391-0.305,0.391s-0.258,0.125-0.555,0s0.958,2.012,1.109,2.328s0.375,0.422,0.516,0.094    S-80.609,12.016-80.609,12.141z"></path><path d="M-79.969,15.312c-0.203-0.031-0.309-0.137-0.516-0.281s0.328,2.703,0.328,2.703s0.109,0.328,0.25,0.234    s0.328-0.312,0.328-0.312s0.125-3.219,0-3S-79.766,15.344-79.969,15.312z"></path><path d="M-80.532,17.828c-0.155,0.078,0.142,0.562,0.376,0.891s0.327,3.703,0.327,3.703s0.313,0.141,0.438,0s0.234-4.047,0-4.734    c-0.084,0.087-0.51,0.551-0.637,0.469S-80.377,17.75-80.532,17.828z"></path><path d="M-79.188,22.312c0,0-0.156,0.359-0.438,0.344s-0.469-0.344-0.469-0.344s-0.312,1.031-0.203,1.406    s-1.219,3.922-1.172,4.219c0.578-0.719,1.375-1.453,1.375-1.453s1-2.984,1.438-3.453s1.172-2.062,0.734-1.859    s-0.844,1.344-1,1.312s-0.141-0.797-0.266-0.516S-79.188,22.312-79.188,22.312z"></path><path d="M-82,31.042c0.188-0.229,0.125-0.083,0.271,0s1.333-2.667,1.333-2.667l-1.833,1.833c0,0-0.729,1.708-0.375,1.646    C-82.375,31.479-82.188,31.271-82,31.042z"></path><path d="M-81.47,31.084c0,0-0.259,0.417-0.467,0.167c-0.281,0.135-0.625,0.812-0.625,0.812s6.208,3.979,7.125,3.917    c-0.25-0.854-0.125-2.104,0.271-2.604C-76.187,33.543-81.47,31.084-81.47,31.084z"></path><path d="M-77.812,43.479c0.312-1.333,0.896-1.854,0.896-1.854s-4.146-0.917-7.229-0.167c-1.375-0.25-4.021,0.25-4.188,0.458    s0.292,0.583,0.562,0.552s0.037,0.281,0.081,0.531S-80.604,42.458-77.812,43.479z"></path><path d="M-87.875,42.613c-0.204,0.125-0.438-0.175-0.641-0.363c-0.359,0.234,0.147,6.258,0.147,6.258s0.416,0.523,0.679,1.326    s0.174-6.412-0.107-6.646C-88.031,43.203-87.671,42.488-87.875,42.613z"></path><path d="M-88.391,50.141c-0.146,0.098,0.109,3.438,0.109,3.438h0.592c0,0,0.173-1.944,0-1.859S-88.247,50.349-88.391,50.141z"></path><path d="M-87.547,55.031h-0.766l0.109,0.766l0.656,1.594c0,0,0.047-0.34,0.172-0.203s1.328,1.469,1.391,1.297    s-1.5-1.625-1.391-1.922S-87.547,55.031-87.547,55.031z"></path><path d="M-78.891,54.391c0.016-0.422-9.598-0.812-9.939-0.734s-0.951,0.469-0.779,0.625s0.578-0.172,0.703,0.031    s-0.203,0.234-0.234,0.531s0.378,0.328,0.705,0.094c0.858-0.234,9.624,1.594,9.624,1.594S-78.906,54.812-78.891,54.391z"></path><path d="M-89.351,54.844c0.149-0.203,0.444-0.531,0.288-0.406s-0.577,0-0.577,0S-89.5,55.047-89.351,54.844z"></path><path d="M-82.167,70.958c0.187-0.063,1.501,0.896,1.625,0.708s-1.375-1.041-1.833-1.667s-4.722-12.51-5.238-12.417    c-0.215-0.083-0.823-1.787-0.823-1.958s0-0.422,0-0.422s-0.442,0.156-0.582,0.078s-0.451-0.25-0.451-0.25l2.321,5.078    c0,0,2.132,4.484,2.179,5.328s1.845,6.334,2.177,6.229S-82.353,71.022-82.167,70.958z"></path><path d="M-82.396,76.833c0.292-0.088,0.208-0.208,0.417-0.292s0.338,0.271,0.375,0s-0.708-3.511-0.625-3.917    s0.823,1.344,0.771,0.979s-0.713-2.479-0.771-2.333s-0.438,0.562-0.438,0.562S-82.688,76.922-82.396,76.833z"></path><path d="M-81.734,81.203c0.141-0.078,0.13-4.661-0.219-4.484s-0.312,0.266-0.312,0.266s-0.406,3.922-0.281,4.117    s0.266-0.07,0.485-0.102S-81.875,81.281-81.734,81.203z"></path><path d="M-82.281,81.312c-0.111,0.278-0.25,3.25-0.141,3.469s0.406,0.234,0.484,0s0-3.469,0-3.469S-82.17,81.035-82.281,81.312z"></path><path d="M-82.182,87.844c0.063,0.116,0.497,1.328,0.432,0.797s-0.371-3.516-0.432-3.547s-0.279-0.143-0.279-0.143    s-0.243,2.939-0.109,3.064S-82.245,87.728-82.182,87.844z"></path><path d="M-80.953,91.859c-0.281-0.141-1.094-3.406-1.094-3.406L-82.25,88c0,0-0.048,0.047-0.211,0.219s-0.039,4.25,0.211,4.234    s0.016-0.547,0.25-0.594s2.422,0.766,2.062,0.406S-80.672,92-80.953,91.859z"></path><path d="M-88.301,62.792c0.094-0.271,0.379,0.542,0.611,0.208s-0.205-4.25-0.205-4.25s-0.292-0.312-0.418-0.75    c-0.332,0.229-0.395,4.896-0.395,4.896S-88.395,63.063-88.301,62.792z"></path><path d="M-87.622,69.125c0.143-0.229,0.56,0.479,0.664,0.219s-0.688-6.115-0.938-6.094s-0.417-0.271-0.417-0.271l-0.166,0.102    c0,0,0.375,6.335,0.688,6.481S-87.765,69.354-87.622,69.125z"></path><path d="M-85.812,74.521c-0.204-0.287-1.688-5.208-1.688-5.208s0.074,0.51-0.104,0.521s0.417,2.042,0.417,2.042s1.043,3.651,1,3.5    s-0.125,0.245,0,0.521s0.23-0.526,0.333-0.812s3.079,0.683,2.583,0.229S-85.608,74.808-85.812,74.521z"></path><path d="M-71.984,24.156c-0.25-0.094-0.625,0.422-0.828,0.39s-0.131,0.392-0.131,0.392s0.35,0,0.491,0.14    c0.313,0.007,1.094-0.233,1.094-0.233s-0.609-0.125-0.625-0.297S-71.734,24.25-71.984,24.156z"></path><path d="M-71.875,24.546c0,0,0.427,0.277,0.609,0.231s0.609-0.808,1.078-0.949s-1.25-0.016-1.469,0.234    S-71.875,24.546-71.875,24.546z"></path><path d="M-72.469,25.281c0,0-1.039,0.879-1.297,2.656c0.121,0.57,0.688,1.406,0.688,1.406s0.297,0.688,0.134,0.953    s-1.041,0.25-1.041,0.25s-0.047,0.781,0.344,0.781s3.058,0.046,4.047,0.25c0.031,0.006,0.055-0.011,0.082-0.017    c0.005,0,0.008,0.003,0.012,0.002c0.989-0.204,3.656-0.25,4.047-0.25s0.344-0.781,0.344-0.781s-0.878,0.016-1.041-0.25    s0.134-0.953,0.134-0.953s0.567-0.836,0.688-1.406c-0.258-1.777-1.297-2.656-1.297-2.656s-0.896-0.1-1.188-0.344    s-0.958-0.953-1.174-0.984c-0.129-0.019-0.38,0.574-0.563,1.056c-0.182-0.479-0.43-1.06-0.558-1.042    c-0.216,0.031-0.883,0.74-1.174,0.984S-72.469,25.281-72.469,25.281z"></path><path d="M-73.109,23.77c0.094,0.051,0.048,0.035,0.166,0.183s1.147-1.562,1.415-1.578s1.107-0.391,1.217-0.656    s-2.016,0.453-2.391,0.766s-0.875,1.062-0.875,1.062l0.234,0.314C-73.344,23.861-73.203,23.719-73.109,23.77z"></path><path d="M-65.135,27.819c0.059,0.369-0.503,1.24-0.708,1.583s-0.188,0.99,0.333,1s2.323-0.572,2.292-2.792    c-0.098-1.167-0.594-2.968-3.25-2.458C-65.343,25.798-65.194,27.45-65.135,27.819z M-64.009,27.527    c0.146,0.562-0.834,1.688-0.834,1.688s0.562-2.167-0.458-3.312C-64.634,26.298-64.155,26.965-64.009,27.527z"></path><path d="M-65.968,23.986c-0.078,0.094-0.219,0.312-0.172,0.5s0.328,0.359,0.516,0.234s1.344-0.516,1.617-0.797    c0.18,0.188,1.102-0.109,1.102-0.109s0.309,0.343,0.5,0.359c0.578,0,0.719-0.656,0.531-0.766s-0.688,0.172-0.891-0.062    s-0.219-0.828-0.703-0.828s-1.891,0.859-2.172,1.469C-65.878,24.183-65.89,23.892-65.968,23.986z"></path><path d="M-62.281,24.298c1.234,1.109,7.539,8.028,7.812,8.328s0.672-0.25,0.672-0.25s-0.438-0.188-0.5-0.406s0.141-0.594,0-0.766    s-0.172,0.188-0.391,0.125s-6.969-7.516-6.969-7.516S-61.859,24.33-62.281,24.298z"></path><path d="M-54.255,32.819c-0.355-0.146,1.609,2.255,1.917,2.688s1.749,4.167,1.749,4.167s0.424-0.124,0.438-0.312    c-0.042-0.542-1.292-3.479-1.292-3.479s0.25-0.125,0-0.25s-2.271-3.125-2.271-3.125S-53.9,32.965-54.255,32.819z"></path><path d="M-50.151,42.589c0.111-0.188,0.639,0,0.639,0s-0.146-2.542-0.521-2.916c-0.021,0.125-0.479,0.312-0.479,0.312    S-50.262,42.777-50.151,42.589z"></path><path d="M-49.512,42.777c0,0-0.479-0.125-0.604,0s0,3.062,0,3.062s0.083,0.25,0.417,0S-49.512,42.777-49.512,42.777z"></path><path d="M-49.742,46.131c0,0-0.271,0.229-0.43-0.083s-0.34,2.354-0.34,2.354s0.104,0.208,0.34,0S-49.742,46.131-49.742,46.131z"></path><path d="M-57.718,7.205c0.281,0.344-0.031,3.188-0.031,3.188h0.312c0,0,0.281-2.719,0.625-2.812s0.844-1.062,0.844-1.062    s-0.812,0.405-1.094,0.312s-1.531-0.5-1.531-0.5S-58.343,7.08-57.718,7.205z"></path><path d="M-50.617,48.672c-0.271,0.146-1.771,3.729-1.875,3.938s-0.062,0.25,0.229,0.188s2-4.125,2-4.125    S-50.263,48.672-50.617,48.672z"></path><path d="M-58.198,12.194c0,0,0.042,0.208,0.312,0.167s0.604-1.667,0.604-1.667s-0.021-0.208-0.521-0.167    C-58.036,10.724-58.198,12.194-58.198,12.194z"></path><path d="M-58.734,14.845c0.151-0.316,1.406-2.453,1.109-2.328s-0.555,0-0.555,0s-0.305-0.266-0.305-0.391    s-0.906,2.484-0.766,2.812S-58.885,15.162-58.734,14.845z"></path><path d="M-59.187,17.955c0.141,0.094,0.25-0.234,0.25-0.234s0.535-2.847,0.328-2.703s-0.312,0.25-0.516,0.281    s-0.266-0.438-0.391-0.656s0,3,0,3S-59.328,17.861-59.187,17.955z"></path><path d="M-59.264,22.408c0,0,0.093-3.375,0.327-3.703s0.531-0.812,0.376-0.891s-0.378,0.246-0.505,0.328s-0.552-0.381-0.637-0.469    c-0.234,0.688-0.125,4.594,0,4.734S-59.264,22.408-59.264,22.408z"></path><path d="M-59,26.47c0,0,0.797,0.734,1.375,1.453c0.047-0.297-1.281-3.844-1.172-4.219S-59,22.298-59,22.298    s-0.188,0.328-0.469,0.344s-0.438-0.344-0.438-0.344s0.125-0.062,0-0.344s-0.109,0.484-0.266,0.516s-0.562-1.109-1-1.312    s0.297,1.391,0.734,1.859S-59,26.47-59,26.47z"></path><path d="M-57.364,31.028c0.146-0.083,0.083-0.229,0.271,0s0.375,0.438,0.604,0.812c0.354,0.062-0.375-1.646-0.375-1.646    l-1.833-1.833C-58.698,28.361-57.51,31.111-57.364,31.028z"></path><path d="M-56.531,32.049c0,0-0.344-0.677-0.625-0.812c-0.208,0.25-0.467-0.167-0.467-0.167s-5.283,2.459-6.304,2.292    c0.396,0.5,0.521,1.75,0.271,2.604C-62.74,36.028-56.531,32.049-56.531,32.049z"></path><path d="M-61.281,43.465c2.792-1.021,9.833-0.229,9.877-0.479s-0.189-0.562,0.081-0.531s0.729-0.344,0.562-0.552    s-2.812-0.708-4.188-0.458c-3.083-0.75-7.229,0.167-7.229,0.167S-61.593,42.132-61.281,43.465z"></path><path d="M-51.296,43.173c-0.281,0.234-0.371,7.449-0.107,6.646s0.679-1.326,0.679-1.326s0.506-6.024,0.147-6.258    c-0.203,0.188-0.437,0.487-0.641,0.363S-51.062,43.189-51.296,43.173z"></path><path d="M-51.404,51.705c-0.173-0.085,0,1.859,0,1.859h0.592c0,0,0.256-3.339,0.109-3.438    C-50.846,50.335-51.231,51.79-51.404,51.705z"></path><path d="M-51.718,57.173c0.125-0.137,0.172,0.203,0.172,0.203l0.656-1.594l0.109-0.766h-0.766c0,0-0.281,1.234-0.172,1.531    s-1.453,1.75-1.391,1.922S-51.843,57.31-51.718,57.173z"></path><path d="M-50.657,54.923c0.327,0.234,0.736,0.203,0.705-0.094s-0.359-0.328-0.234-0.531s0.531,0.125,0.703-0.031    s-0.438-0.547-0.779-0.625s-9.955,0.312-9.939,0.734s-0.078,2.141-0.078,2.141S-51.515,54.689-50.657,54.923z"></path><path d="M-50.031,54.423c-0.156-0.125,0.139,0.203,0.288,0.406s0.289-0.406,0.289-0.406S-49.875,54.548-50.031,54.423z"></path><path d="M-50.657,55.189c0,0,0,0.25,0,0.422s-0.608,1.875-0.823,1.958c-0.516-0.094-4.779,11.791-5.238,12.417    s-1.958,1.478-1.833,1.667s1.438-0.771,1.625-0.708s0.292,0.603,0.625,0.708s2.13-5.385,2.177-6.229s2.179-5.328,2.179-5.328    l2.321-5.078c0,0-0.311,0.172-0.451,0.25S-50.657,55.189-50.657,55.189z"></path><path d="M-56.864,71.257c-0.057-0.146-0.718,1.969-0.771,2.333s0.687-1.386,0.771-0.979s-0.662,3.646-0.625,3.917    s0.167-0.083,0.375,0s0.125,0.203,0.417,0.292s0.271-5,0.271-5S-56.807,71.403-56.864,71.257z"></path><path d="M-57.14,76.705c-0.349-0.177-0.359,4.406-0.219,4.484s0.107-0.234,0.327-0.203s0.36,0.297,0.485,0.102    s-0.281-4.117-0.281-4.117S-56.791,76.881-57.14,76.705z"></path><path d="M-57.156,81.298c0,0-0.078,3.234,0,3.469s0.375,0.219,0.484,0s-0.03-3.191-0.141-3.469S-57.156,81.298-57.156,81.298z"></path><path d="M-56.911,85.08c-0.061,0.031-0.368,3.016-0.432,3.547s0.369-0.681,0.432-0.797s0.255,0.297,0.389,0.172    s-0.109-3.064-0.109-3.064S-56.85,85.048-56.911,85.08z"></path><path d="M-56.843,87.986l-0.203,0.453c0,0-0.812,3.266-1.094,3.406s-0.656,0.047-1.016,0.406s1.828-0.453,2.062-0.406    s0,0.578,0.25,0.594s0.375-4.062,0.211-4.234S-56.843,87.986-56.843,87.986z"></path><path d="M-51.199,58.736c0,0-0.438,3.917-0.205,4.25s0.518-0.479,0.611-0.208s0.406,0.104,0.406,0.104s-0.062-4.667-0.395-4.896    C-50.907,58.424-51.199,58.736-51.199,58.736z"></path><path d="M-51.198,63.236c-0.25-0.021-1.042,5.833-0.938,6.094s0.521-0.448,0.664-0.219s-0.143,0.583,0.169,0.438    s0.688-6.481,0.688-6.481l-0.166-0.102C-50.781,62.966-50.948,63.257-51.198,63.236z"></path><path d="M-51.594,69.299c0,0-1.484,4.921-1.688,5.208s-2.046,0.338-2.542,0.792s2.48-0.516,2.583-0.229s0.209,1.088,0.333,0.812    s0.043-0.672,0-0.521s1-3.5,1-3.5s0.594-2.032,0.417-2.042S-51.594,69.299-51.594,69.299z"></path><path d="M-67.734,24.83c0,0,0.78,0.241,1.094,0.233c0.141-0.14,0.491-0.14,0.491-0.14s0.072-0.424-0.131-0.392    s-0.578-0.483-0.828-0.39s0.016,0.219,0,0.391S-67.734,24.83-67.734,24.83z"></path><path d="M-67.828,24.763c0.182,0.046,0.609-0.231,0.609-0.231s0-0.233-0.219-0.483s-1.938-0.375-1.469-0.234    S-68.01,24.716-67.828,24.763z"></path><path d="M-64.197,33.131c-0.245-0.516-0.498-0.434-0.646-0.562s-0.104-1.146-0.264-1.083s-4.132,0.167-4.403,0.357    c-0.014,0.01-0.027,0.05-0.042,0.106c-0.011-0.037-0.021-0.084-0.032-0.092c-0.271-0.19-4.243-0.294-4.403-0.357    s-0.115,0.955-0.264,1.083s-0.401,0.047-0.646,0.562c-0.656,1.498-0.396,1.962-0.396,2.835s0,1.706,0,1.706    s-0.062,0.958,0.25,1.708s0.667,1.438,1.146,1.396s1.458,0.208,1.458,0.208s1.132,0.562,1.333,0.438s0.333-0.25,0.604-0.375    c0.333,0.083,0.376,1.167,0.917,1c0.541,0.167,0.658-0.931,0.991-1.014c0.271,0.125,0.403,0.25,0.604,0.375    s1.333-0.438,1.333-0.438s0.979-0.25,1.458-0.208s0.833-0.646,1.146-1.396s0.25-1.708,0.25-1.708s0-0.833,0-1.706    S-63.542,34.628-64.197,33.131z"></path><path d="M-60.676,58.299c0.323-0.203,0.333-3.391,0.271-3.833s0.093-0.765,0.125-1.021s0.094-0.38,0-1.104    s-0.125-2.354-0.125-2.354s0-2.75,0-3.292c0-0.283-0.154-1.042-0.3-1.562v-0.001c0,0-0.003-0.01-0.004-0.012    c-0.05-0.175-0.098-0.32-0.14-0.41c-0.117-0.322-0.291-0.752-0.473-1.015c-0.317-0.459-0.125-0.64-0.354-1.096    s-0.505-0.752-0.938-1.175s-1.625-0.417-1.625-0.417s0.854,0.387,1.562,1.058c0.53,0.502,1.35,2.158,1.704,3.192    c-0.021,1.079-0.105,2.766,0.005,3.166c0.125,0.453-0.188,1.266-0.354,1.562s-1.255,0.547-1.396,0.762s-3.594,1.707-3.938,1.738    s-0.812-0.328-0.917-0.625s0.104-1.188,0.271-1.625s3.974-3.969,4.208-5.219c0.125-0.625,0.938-1.5,0.75-1.989    s-0.812-0.589-0.792-0.72s-1.63-1.447-1.938-1.405s-0.427,0.036-0.521,0.146s0.938,1.203,1,1.542s-0.578,1.505-0.771,1.729    s-0.604,0.323-0.812,0.25s-0.745-0.787-0.792-0.604s0.344,0.958,0.354,1.396s-1.213,3.594-1.458,3.771s-0.271,0.167-0.438,0    s-0.13-5.021,0.208-5.833s1.131-1.563,1.301-1.83s-0.812,0.314-1.01,0.184s-0.38-0.308-0.583-0.25s-0.281,0.771-0.5,0.905    s-0.417,0-0.417,0s-0.271,0.148-0.49,0.014s-0.297-0.847-0.5-0.905s-0.386,0.12-0.583,0.25s-1.041-0.449-0.871-0.183    s0.824,1.016,1.163,1.829s0.375,5.667,0.208,5.833s-0.193,0.177-0.438,0s-1.468-3.333-1.458-3.771s0.401-1.213,0.354-1.396    s-0.583,0.531-0.792,0.604s-0.62-0.026-0.812-0.25s-0.833-1.39-0.771-1.729s1.094-1.433,1-1.542s-0.214-0.104-0.521-0.146    s-1.958,1.273-1.938,1.405s-0.604,0.231-0.792,0.72s0.625,1.364,0.75,1.989c0.234,1.25,4.042,4.781,4.208,5.219    s0.375,1.328,0.271,1.625s-0.573,0.656-0.917,0.625s-3.797-1.523-3.938-1.738s-1.229-0.465-1.396-0.762s-0.479-1.109-0.354-1.562    c0.11-0.4,0.026-2.087,0.005-3.166c0.354-1.035,1.173-2.69,1.704-3.192c0.708-0.671,1.562-1.058,1.562-1.058    s-1.193-0.006-1.625,0.417s-0.708,0.718-0.938,1.175s-0.037,0.637-0.354,1.096c-0.182,0.263-0.356,0.693-0.473,1.016    c-0.042,0.089-0.09,0.234-0.14,0.408c0,0.003-0.004,0.013-0.004,0.013v0.001c-0.146,0.52-0.3,1.278-0.3,1.562    c0,0.542,0,3.292,0,3.292s-0.031,1.631-0.125,2.354s-0.031,0.848,0,1.104s0.187,0.579,0.125,1.021s-0.052,3.631,0.271,3.833    s0.099-0.865,0.188-1.229s-0.021-3.218,0.104-3.542s-0.162-0.963,0.146-1.042s1.13,0.344,1.375,0.688s1.427,0.99,1.812,1.167    s1.833,0.115,2.25,0.208s2.025,1.172,2.104,1.438s-0.297,2.217-0.375,2.499s0.218,0.611,0.125,0.751s-0.496,0.532-0.958,0.312    s-4.1-0.912-4.375-0.792s-2.266-0.546-2.458-0.104c-0.111,0.256,0.045,1.971,0.197,3.373c0.036,1.008,0.181,2.114,0.188,2.382    c0.016,0.547,0.344,1.938,0.641,2.531s0.766,1.172,1.219,1.75s3.875,3.578,4.453,3.93c0.428,0.26,1.493,0.795,1.855,0.906v0.056    c0,0,0.165,0.192,0.373-0.116c0.214,0.336,0.385,0.13,0.385,0.13v-0.084c0.363-0.111,1.428-0.646,1.855-0.906    c0.578-0.352,4-3.352,4.453-3.93s0.922-1.156,1.219-1.75s0.625-1.984,0.641-2.531c0.008-0.267,0.153-1.375,0.188-2.382    c0.152-1.402,0.309-3.117,0.197-3.373c-0.192-0.442-2.183,0.224-2.458,0.104s-3.912,0.573-4.375,0.792s-0.865-0.172-0.958-0.312    s0.203-0.469,0.125-0.751s-0.454-2.234-0.375-2.499s1.687-1.344,2.104-1.438s1.864-0.032,2.25-0.208s1.567-0.823,1.812-1.167    s1.067-0.766,1.375-0.688s0.021,0.718,0.146,1.042s0.015,3.177,0.104,3.542S-61,58.501-60.676,58.299z M-77.219,66.469    c-0.172-0.203-0.516-2.188-0.422-2.516c0.055-0.191,0.33-1.243,0.364-2.183c0.123,0.149,0.295,0.257,0.568,0.25    c0.943-0.021,3.197-0.208,3.75-0.083s1.129,0.297,1.396,0.562c0.219,0.218,0.7,1.959,1.117,2.609    c0.076,0.335,0.185,0.96-0.007,1.141c-0.266,0.25-0.594,0.297-0.953,0.188s-2.16,0.344-2.608,0.203s-1.376-0.625-1.845-0.578    S-77.047,66.672-77.219,66.469z M-71.156,72.703c-0.314-0.312-4.422-4.031-4.188-4.156s0.297,0.234,0.844,0.406    s1.359-0.25,1.703-0.219s2.375,1.01,2.438,1.281c0.037,0.161,0.235,1.224,0.435,2.136l-0.001,1.271    C-70.327,73.093-70.858,72.999-71.156,72.703z M-67.937,72.689c-0.298,0.296-0.83,0.389-1.23,0.719l-0.001-1.271    c0.2-0.912,0.397-1.975,0.435-2.136c0.062-0.271,2.094-1.25,2.438-1.281s1.156,0.391,1.703,0.219s0.609-0.531,0.844-0.406    S-67.623,72.377-67.937,72.689z M-67.53,62.486c0.267-0.266,0.843-0.438,1.396-0.562s2.807,0.062,3.75,0.083    c0.273,0.006,0.445-0.101,0.568-0.25c0.034,0.94,0.309,1.992,0.364,2.183c0.094,0.328-0.25,2.312-0.422,2.516    s-0.891-0.359-1.359-0.406s-1.396,0.438-1.845,0.578s-2.249-0.312-2.608-0.203s-0.688,0.062-0.953-0.188    c-0.192-0.181-0.083-0.806-0.007-1.141C-68.23,64.444-67.749,62.704-67.53,62.486z"></path><path d="M-67.564,22.361c0.268,0.016,1.297,1.726,1.415,1.578s0.072-0.132,0.166-0.183s0.234,0.092,0.234,0.092l0.234-0.314    c0,0-0.5-0.75-0.875-1.062s-2.5-1.031-2.391-0.766S-67.832,22.345-67.564,22.361z"></path></g></g><g><path d="M45.875,56.75c0,0-0.082-1.029,0.292-1.167s0.771-0.178,1.083-0.75s0.897-1.752,1.458-2.125s2.167-1.542,4.208-2.125   c4.375-0.833,9.875,2.417,12.125,3.083c-0.333,0.792-3.833,4.167-4.333,4.583s-3.042,1.042-4.25,1.25s-4.292,0-5.958-1.083   S45.875,56.75,45.875,56.75z"></path><path d="M61.75,58.031c0,0,3.969-3.875,3.969-4.719c0.307-1.078,1.312-3.562,1.75-3.906c1.031-0.625,1.875,1.875,1.875,2.531   s-0.562,1.844-2,3.438S61.75,58.031,61.75,58.031z"></path><path d="M61.094,58.562c0,0-4.367,1.497-5.188,1.438s-2.156-0.156-2.156-0.156s9.376,8.011,10.469,8.594   c0.614,0.48,9.01,3.999,10.094,4.438s11.896,2.854,12.625,3s1.188-0.229,1.625-0.312s0.521,0.208,0.812,0s-0.25-0.438,0-0.625   s1.842-3.114,1.375-4s-1.753-3.565-2.75-3.719s-4.917-0.552-10.562-3.281S61.094,58.562,61.094,58.562z"></path><path d="M88.75,75.908c0,0-0.672,0.326-1.531,0.311s-12.386-2.724-13.031-3s-6.719-2.875-6.719-2.875s9.875,5.875,15.781,6.438   C86.438,77.312,88.75,75.908,88.75,75.908z"></path><path d="M50,58.562c0,0-3.875-1.25-4.344-1.469S45.438,56.5,45.438,56.5s-5.646,0.013-6.5-0.156s-3.625-0.719-3.625-0.719   s-11.125,1.25-13.781,4.344s-0.812,5.906-0.344,7.062s4,3.5,4.906,3.469s6.936-1.9,7.719-1.875s7.095,0.411,7.875,0.25   s2.969-0.498,4.5-1.64S50,58.562,50,58.562z"></path><path d="M26.542,70.75c0,0,6.5-1.854,7.167-1.771s7.15,0.364,7.792,0.208s2.156-0.5,3.594-0.875   c-0.156,0.484-7.031,2.812-10.469,2.438C32.969,70.531,26.542,70.75,26.542,70.75z"></path><path d="M45.625,55.625c0.084,0.188-0.219,0.406-0.219,0.406s-5.375,0.031-5.781-0.203s-3.562-0.547-4.094-0.609   s-1.156,0.188-1.156,0.188s-8.419-2.171-9.188-2.594s-2.701-1.423-3.656-2.365S9.333,38.458,9.438,37.969s0.958-0.844,1.25-0.812   s0.708-0.511,1.219-0.625s4.344,2.51,4.781,3.156s5.104,2.354,6.375,2.625S45.541,55.438,45.625,55.625z"></path><path d="M9.234,38.109C9.625,39.047,20.261,50.103,21.156,50.5s-3.344-1.5-4.5-2.312s-6.407-6.062-7.219-7.312   S8.817,37.899,9.234,38.109z"></path><path d="M54.042,50c-2.958,0.083-4.963,2.222-5.479,2.375c-0.229-0.458,0.796-6.583,1.083-7.417s1.646-4.896,2.104-5.104   s2.25,3.917,2.604,5.125S55.062,46.979,54.042,50z"></path><path d="M54.5,50c0,0,3.75,0.375,5,1.062c0.156-2.531-0.318-5.882-0.531-6.656s-2.514-9.147-2.906-10.25s-0.392-1.103-1.562-2.188   c0.281,3.312-2.562,7.344-2.562,7.344s2.719,3.531,3.062,6.798C55.219,48,54.5,50,54.5,50z"></path><path d="M55.209,31.042c0,0,0.044,1.162,0.246,1.333s0.196,0.223,0.374,0.468c0.203,0.281,3.266,9.266,3.578,11.891   s0.553,6.328,0.553,6.328l1.333,0.646c0,0,0.958-8,0-11.125S55.209,31.042,55.209,31.042z"></path><path d="M54.875,31.646c0,0,0.031-1.266,0.25-1.292s0.156-1.646-0.812-1.75c-1.406-0.136-5.036,3.084-6.292,4.208   c-6.677,7.125-5.655,14.397-5.521,15.479s0.266,4.313,0.625,5.042s2.742,1.875,2.742,1.875s0.373,0.045,0.674-0.199   s1.229-2.232,1.5-2.426c-0.058-0.881,0.845-7.474,1.167-7.958c0.369-1.547,4.322-9.313,4.541-10.208   c0.281-0.495,0.24-3.057,0.542-3.167S54.875,31.646,54.875,31.646z"></path><path d="M43.875,38.092c1.834-6.175,1.332-5.634,0.375-9.758s-3.332-6.708-5.458-6.667c-0.624-0.083-0.543-0.416-0.833-0.667   s-0.792,0.333-0.792,0.333s-5.043,0.958-7.958,6S27.499,35.375,28,37.708s3.625,8.833,3.625,8.833l10.741,6.5   C42.366,53.042,40.291,41.35,43.875,38.092z"></path><path d="M44.751,36.292c0,0,0.819-2.833,0.889-4.083s-0.889-4.25-0.889-4.25s3.667-5.125,9.25-5.208   c2.375,0.292,4.292-0.166,4.792,0.167s1.125-0.375,1.125-0.375s4.312,4.512,4.208,5.417s-1.167,2.292-1.625,2.167   s-1.041,0.084-1.708,0.917s0.125,3.458,0.125,3.458s0.488,2.048,0.292,4.208c-1.833-4.208-5.755-8.083-5.755-8.083l0.28-0.375   c0,0,0.35-1.583-1.296-2.375C49.293,28.584,44.751,36.292,44.751,36.292z"></path><path d="M68.959,49.583c0,0,1.291-8.249,1.792-9.292s2.958-11.208,3.375-11.875s1.249-1.125,1.792-1s0.041,0.75,0,2.167   s-2.75,8.652-3.292,10.264s0.583,3.695-0.188,6.987s-1.646,4.292-2.229,5.875s-1.542,2.083-1.542,2.083s0.875-1.75,1.042-2.75   S68.959,49.583,68.959,49.583z"></path><path d="M73.917,27.75c0.392-0.187-8.833-0.729-9.125,0.25s-0.564,1.676-1.625,2.417c-1.084-0.021-0.896,0.033-1.75,0.626   s0.959,6.061,0,8.416c0.208,0.396,0.127,0.687,0.5,1.458c0.915,3.625-0.167,10.792-0.167,10.792s2.19,0.917,3.459,1.333   c0.332-2.375,2.064-4.376,2.458-4.417s0.75,0.417,0.75,0.417s1.337-8.084,1.667-8.646S73.525,27.936,73.917,27.75z"></path><path d="M76.334,29.793c0,2-3.083,9.458-3.333,10.625s0.292,2.167,0.25,4.625c0.417,2.333-2.708,8.626-2.708,8.626   s9.083-6.793,9.583-9.084c0.292-0.792-0.5-1.749,0.167-2.854s3.625-2.688,2.542-4.73s-5.369-4.387-5.583-5.25   S76.335,27.793,76.334,29.793z"></path><path d="M62.708,58.479c0,0,6.166-2.395,7.042-3.688c2.833-1,4.945,0.061,7.056,0.218S83,57.833,84,58.562   s-1.208,3.521-2.667,3.188s-5.451,0.709-6.417,0.417S62.708,58.479,62.708,58.479z"></path><path d="M75.375,62.583l5.458-0.542h0.625c0,0-1,0.875-2.208,1.021S75.375,62.583,75.375,62.583z"></path></g></g>
        </svg>
      </g><g opacity="1" transform="rotate(0 108.20830000000001 61.079200000000014)">
        <svg width="203.5834" height="25" x="108.20830000000001" y="61.079200000000014" version="1.1" preserveAspectRatio="none" viewBox="0 -30 310.55310000000003 38.125">
          <g transform="matrix(1 0 0 1 0 0)" class="text7H0RTyQ8"><path transform="" stroke="none" d=""></path>
    <path transform="" stroke="none" d="M23.98-12.68L23.98-12.68Q19.16-14.06 16.96-16.08Q14.76-18.11 14.76-21.07L14.76-21.07Q14.76-24.43 17.45-26.63Q20.13-28.83 24.43-28.83L24.43-28.83Q27.36-28.83 29.66-27.70Q31.95-26.56 33.21-24.57Q34.47-22.58 34.47-20.21L34.47-20.21L30.70-20.21Q30.70-22.79 29.06-24.27Q27.42-25.74 24.43-25.74L24.43-25.74Q21.66-25.74 20.11-24.52Q18.55-23.30 18.55-21.13L18.55-21.13Q18.55-19.39 20.03-18.19Q21.50-16.99 25.05-16.00Q28.59-15 30.59-13.80Q32.60-12.60 33.56-11.00Q34.53-9.39 34.53-7.23L34.53-7.23Q34.53-3.77 31.83-1.69Q29.14 0.39 24.63 0.39L24.63 0.39Q21.70 0.39 19.16-0.73Q16.62-1.86 15.24-3.81Q13.86-5.76 13.86-8.24L13.86-8.24L17.63-8.24Q17.63-5.66 19.54-4.17Q21.44-2.68 24.63-2.68L24.63-2.68Q27.60-2.68 29.18-3.89Q30.76-5.10 30.76-7.19Q30.76-9.28 29.29-10.42Q27.83-11.56 23.98-12.68Z"></path>
    <path transform="" stroke="none" d="M58.00 0L54.21 0Q53.90-0.63 53.71-2.23L53.71-2.23Q51.19 0.39 47.69 0.39L47.69 0.39Q44.57 0.39 42.56-1.38Q40.56-3.14 40.56-5.86L40.56-5.86Q40.56-9.16 43.07-10.99Q45.58-12.81 50.13-12.81L50.13-12.81L53.65-12.81L53.65-14.47Q53.65-16.37 52.51-17.49Q51.38-18.61 49.17-18.61L49.17-18.61Q47.24-18.61 45.93-17.64Q44.62-16.66 44.62-15.27L44.62-15.27L40.99-15.27Q40.99-16.86 42.11-18.33Q43.24-19.80 45.16-20.66Q47.09-21.52 49.39-21.52L49.39-21.52Q53.04-21.52 55.11-19.70Q57.18-17.87 57.26-14.67L57.26-14.67L57.26-4.94Q57.26-2.03 58.00-0.31L58.00-0.31L58.00 0ZM48.22-2.75L48.22-2.75Q49.92-2.75 51.44-3.63Q52.96-4.51 53.65-5.92L53.65-5.92L53.65-10.25L50.82-10.25Q44.17-10.25 44.17-6.37L44.17-6.37Q44.17-4.67 45.31-3.71Q46.44-2.75 48.22-2.75Z"></path>
    <path transform="" stroke="none" d="M69.25-30L69.25 0L65.64 0L65.64-30L69.25-30Z"></path>
    <path transform="" stroke="none" d="M76.47-10.51L76.47-10.76Q76.47-13.87 77.70-16.35Q78.92-18.83 81.09-20.18Q83.27-21.52 86.06-21.52L86.06-21.52Q90.38-21.52 93.05-18.54Q95.71-15.55 95.71-10.59L95.71-10.59L95.71-10.33Q95.71-7.25 94.53-4.79Q93.35-2.34 91.15-0.98Q88.96 0.39 86.10 0.39L86.10 0.39Q81.81 0.39 79.14-2.60Q76.47-5.59 76.47-10.51L76.47-10.51ZM80.11-10.33L80.11-10.33Q80.11-6.82 81.74-4.69Q83.37-2.56 86.10-2.56L86.10-2.56Q88.86-2.56 90.48-4.72Q92.10-6.88 92.10-10.76L92.10-10.76Q92.10-14.24 90.45-16.40Q88.80-18.55 86.06-18.55L86.06-18.55Q83.39-18.55 81.75-16.43Q80.11-14.30 80.11-10.33Z"></path>
    <path transform="" stroke="none" d="M102.64-21.13L106.06-21.13L106.18-18.48Q108.60-21.52 112.51-21.52L112.51-21.52Q119.21-21.52 119.27-13.96L119.27-13.96L119.27 0L115.65 0L115.65-13.98Q115.63-16.27 114.61-17.36Q113.58-18.46 111.41-18.46L111.41-18.46Q109.66-18.46 108.33-17.52Q107-16.58 106.26-15.06L106.26-15.06L106.26 0L102.64 0L102.64-21.13Z"></path>
    <path transform="" stroke="none" d=""></path>
    <path transform="" stroke="none" d="M149.85 0L139.98 0L139.98-28.44L149.28-28.44Q153.91-28.44 156.24-26.52Q158.58-24.61 158.58-20.86L158.58-20.86Q158.58-18.87 157.44-17.33Q156.31-15.80 154.36-14.96L154.36-14.96Q156.66-14.32 158.00-12.51Q159.34-10.70 159.34-8.20L159.34-8.20Q159.34-4.38 156.86-2.19Q154.38 0 149.85 0L149.85 0ZM149.98-13.30L143.73-13.30L143.73-3.07L149.93-3.07Q152.54-3.07 154.06-4.42Q155.57-5.78 155.57-8.16L155.57-8.16Q155.57-13.30 149.98-13.30L149.98-13.30ZM143.73-25.35L143.73-16.31L149.40-16.31Q151.86-16.31 153.33-17.54Q154.81-18.77 154.81-20.88L154.81-20.88Q154.81-23.22 153.44-24.29Q152.07-25.35 149.28-25.35L149.28-25.35L143.73-25.35Z"></path>
    <path transform="" stroke="none" d="M165.76-10.51L165.76-10.76Q165.76-13.87 166.98-16.35Q168.20-18.83 170.38-20.18Q172.56-21.52 175.35-21.52L175.35-21.52Q179.67-21.52 182.33-18.54Q185.00-15.55 185.00-10.59L185.00-10.59L185.00-10.33Q185.00-7.25 183.82-4.79Q182.64-2.34 180.44-0.98Q178.24 0.39 175.39 0.39L175.39 0.39Q171.09 0.39 168.43-2.60Q165.76-5.59 165.76-10.51L165.76-10.51ZM169.40-10.33L169.40-10.33Q169.40-6.82 171.03-4.69Q172.66-2.56 175.39-2.56L175.39-2.56Q178.15-2.56 179.77-4.72Q181.39-6.88 181.39-10.76L181.39-10.76Q181.39-14.24 179.74-16.40Q178.09-18.55 175.35-18.55L175.35-18.55Q172.68-18.55 171.04-16.43Q169.40-14.30 169.40-10.33Z"></path>
    <path transform="" stroke="none" d="M205.06 0L204.98-2.09Q202.87 0.39 198.79 0.39L198.79 0.39Q195.41 0.39 193.64-1.57Q191.87-3.54 191.85-7.38L191.85-7.38L191.85-21.13L195.47-21.13L195.47-7.48Q195.47-2.68 199.37-2.68L199.37-2.68Q203.51-2.68 204.88-5.76L204.88-5.76L204.88-21.13L208.49-21.13L208.49 0L205.06 0Z"></path>
    <path transform="" stroke="none" d="M217.67-26.25L221.29-26.25L221.29-21.13L225.23-21.13L225.23-18.34L221.29-18.34L221.29-5.23Q221.29-3.96 221.81-3.33Q222.34-2.70 223.61-2.70L223.61-2.70Q224.23-2.70 225.33-2.93L225.33-2.93L225.33 0Q223.90 0.39 222.55 0.39L222.55 0.39Q220.13 0.39 218.90-1.07Q217.67-2.54 217.67-5.23L217.67-5.23L217.67-18.34L213.82-18.34L213.82-21.13L217.67-21.13L217.67-26.25Z"></path>
    <path transform="" stroke="none" d="M235.78-21.13L235.78 0L232.16 0L232.16-21.13L235.78-21.13ZM231.87-26.74L231.87-26.74Q231.87-27.62 232.41-28.22Q232.94-28.83 234.00-28.83Q235.05-28.83 235.60-28.22Q236.15-27.62 236.15-26.74Q236.15-25.86 235.60-25.27Q235.05-24.69 234.00-24.69Q232.94-24.69 232.41-25.27Q231.87-25.86 231.87-26.74Z"></path>
    <path transform="" stroke="none" d="M243.08-10.49L243.08-10.74Q243.08-15.72 245.36-18.62Q247.65-21.52 251.50-21.52L251.50-21.52Q255.25-21.52 257.41-19.00L257.41-19.00L257.57-21.13L260.89-21.13L260.89 8.13L257.28 8.13L257.28-1.95Q255.09 0.39 251.46 0.39L251.46 0.39Q247.63 0.39 245.35-2.59Q243.08-5.57 243.08-10.49L243.08-10.49ZM246.69-10.33L246.69-10.33Q246.69-6.70 248.22-4.63Q249.76-2.56 252.35-2.56L252.35-2.56Q255.58-2.56 257.28-5.41L257.28-5.41L257.28-15.76Q255.56-18.55 252.39-18.55L252.39-18.55Q249.78-18.55 248.23-16.47Q246.69-14.39 246.69-10.33Z"></path>
    <path transform="" stroke="none" d="M282.22 0L282.14-2.09Q280.03 0.39 275.95 0.39L275.95 0.39Q272.57 0.39 270.80-1.57Q269.03-3.54 269.01-7.38L269.01-7.38L269.01-21.13L272.63-21.13L272.63-7.48Q272.63-2.68 276.53-2.68L276.53-2.68Q280.67-2.68 282.04-5.76L282.04-5.76L282.04-21.13L285.65-21.13L285.65 0L282.22 0Z"></path>
    <path transform="" stroke="none" d="M302.31 0.39L302.31 0.39Q298.01 0.39 295.32-2.43Q292.62-5.25 292.62-9.98L292.62-9.98L292.62-10.64Q292.62-13.79 293.82-16.26Q295.03-18.73 297.18-20.13Q299.34-21.52 301.86-21.52L301.86-21.52Q305.98-21.52 308.27-18.81Q310.55-16.09 310.55-11.04L310.55-11.04L310.55-9.53L296.24-9.53Q296.31-6.41 298.06-4.48Q299.81-2.56 302.51-2.56L302.51-2.56Q304.42-2.56 305.75-3.34Q307.08-4.12 308.07-5.41L308.07-5.41L310.28-3.69Q307.62 0.39 302.31 0.39ZM301.86-18.55L301.86-18.55Q299.67-18.55 298.19-16.96Q296.71-15.37 296.35-12.50L296.35-12.50L306.94-12.50L306.94-12.77Q306.78-15.53 305.46-17.04Q304.13-18.55 301.86-18.55Z"></path>
    </g>
        </svg>
      </g><g opacity="1" transform="rotate(0 0 0)">
        <svg width="396" height="38.6504" x="0" y="0" version="1.1" preserveAspectRatio="none" viewBox="0.8 -28.76 300.4 29.320000000000004">
          <g transform="matrix(1 0 0 1 0 0)" class="aD6z1nYkhcolor7H0RTyQ8"><path transform="" stroke="none" d="M23.56-23.76L23.56-24.44Q23.56-25.40 22.88-26.10Q22.20-26.80 21.28-26.84L21.28-26.84L13.68-26.84L13.68-2.88Q13.72-1.84 14.46-1.12Q15.20-0.40 16.24-0.40L16.24-0.40L16.76-0.40L16.76 0L8 0L8-0.40L8.52-0.40Q9.56-0.40 10.30-1.12Q11.04-1.84 11.08-2.84L11.08-2.84L11.08-26.84L3.48-26.84Q2.52-26.80 1.86-26.10Q1.20-25.40 1.20-24.44L1.20-24.44L1.20-23.76L0.80-23.72L0.80-28.76Q1.40-28.52 2.88-28.28Q4.36-28.04 5.60-28.04L5.60-28.04L19.12-28.04Q21.08-28.04 22.38-28.34Q23.68-28.64 23.96-28.76L23.96-28.76L23.96-23.72L23.56-23.76Z"></path>
    <path transform="" stroke="none" d="M44.24-0.40L44.72-0.40Q45.64-0.40 46.32-1.02Q47-1.64 47.04-2.52L47.04-2.52L47.04-11.24L32.28-11.24L32.28-2.52Q32.32-1.64 33-1.02Q33.68-0.40 34.60-0.40L34.60-0.40L35.08-0.40L35.08 0L26.92 0L26.92-0.40L27.40-0.40Q28.36-0.40 29.02-1.04Q29.68-1.68 29.72-2.56L29.72-2.56L29.72-21.44Q29.68-22.32 29-22.96Q28.32-23.60 27.40-23.60L27.40-23.60L26.92-23.60L26.92-24L35.08-24L35.08-23.60L34.60-23.60Q33.68-23.60 33-22.98Q32.32-22.36 32.28-21.48L32.28-21.48L32.28-12.44L47.04-12.44L47.04-21.44Q47.04-22.32 46.52-22.80L46.52-22.80Q45.68-23.60 44.72-23.60L44.72-23.60L44.24-23.60L44.24-24L52.40-24L52.40-23.60L51.92-23.60Q51-23.60 50.32-23Q49.64-22.40 49.60-21.52L49.60-21.52L49.60-2.52Q49.64-1.64 50.12-1.20L50.12-1.20Q51-0.40 51.92-0.40L51.92-0.40L52.40-0.40L52.40 0L44.24 0L44.24-0.40Z"></path>
    <path transform="" stroke="none" d="M56.76-0.40L57.32-0.40Q58.28-0.40 58.94-1.02Q59.60-1.64 59.64-2.52L59.64-2.52L59.64-21.52Q59.64-22.40 58.96-23Q58.28-23.60 57.32-23.60L57.32-23.60L56.76-23.60L56.76-24L68.44-24Q70.08-24 71.32-24.24Q72.56-24.48 72.92-24.64L72.92-24.64L72.92-20.08L72.48-20.12L72.48-20.72Q72.48-21.56 71.92-22.16Q71.36-22.76 70.48-22.76L70.48-22.76L62.16-22.76L62.16-12.60L69-12.60Q69.80-12.60 70.22-13.08Q70.64-13.56 70.64-14.28L70.64-14.28L70.64-14.80L71.08-14.80L71.08-9.20L70.64-9.20L70.64-9.72Q70.64-10.84 69.80-11.24L69.80-11.24Q69.48-11.36 69.12-11.40L69.12-11.40L62.16-11.40L62.16-1.24L68.44-1.24Q70.28-1.24 71.54-1.88Q72.80-2.52 73.46-3.40Q74.12-4.28 74.80-5.72L74.80-5.72L75.20-5.72L73 0L56.76 0L56.76-0.40Z"></path>
    <path transform="" stroke="none" d=""></path>
    <path transform="" stroke="none" d="M122.40-0.40L122.40-0.40L123.04-0.40L123.04 0L114.36 0L114.36-0.36L114.96-0.36Q115.64-0.36 116.12-0.90Q116.60-1.44 116.52-2.08L116.52-2.08L114.72-22.20L106.32-3.52Q105.20-1.08 104.96 0.56L104.96 0.56L104.56 0.56L94.32-21.64L92.60-2.08Q92.52-1.44 93-0.90Q93.48-0.36 94.12-0.36L94.12-0.36L94.76-0.36L94.76 0L87 0L87-0.40L87.64-0.40Q88.76-0.40 89.58-1.08Q90.40-1.76 90.56-2.92L90.56-2.92L93.56-28.56L93.96-28.56L105.12-4.44L116.04-28.56L116.40-28.56L119.48-2.92Q119.68-1.32 121.08-0.68L121.08-0.68Q121.68-0.40 122.40-0.40Z"></path>
    <path transform="" stroke="none" d="M150.04-0.40L150.04-0.40L150.36-0.40L150.36 0L142.16 0L142.16-0.40L142.48-0.40Q143.24-0.40 143.64-0.92Q144.04-1.44 144.04-1.90Q144.04-2.36 143.88-2.80L143.88-2.80L141.68-8.12L131.56-8.12L129.36-2.92Q129.16-2.40 129.16-1.94Q129.16-1.48 129.56-0.94Q129.96-0.40 130.76-0.40L130.76-0.40L131.08-0.40L131.08 0L123.44 0L123.44-0.40L123.76-0.40Q124.60-0.40 125.46-0.98Q126.32-1.56 126.88-2.72L126.88-2.72Q135.64-21.44 136-22.32L136-22.32Q136.68-24 136.72-24.56L136.72-24.56L137.08-24.56L146.96-2.72Q148.12-0.40 150.04-0.40ZM136.72-20.28L132.08-9.32L141.20-9.32L136.72-20.28Z"></path>
    <path transform="" stroke="none" d="M164.68 0.56Q158.72 0.52 155.14-2.86Q151.56-6.24 151.56-12.02Q151.56-17.80 155.14-21.18Q158.72-24.56 164.38-24.56Q170.04-24.56 174.00-22.16L174.00-22.16L174.88-16.48L174.52-16.48Q173.68-20 171.26-21.68Q168.84-23.36 164.42-23.36Q160.00-23.36 157.22-20.30Q154.44-17.24 154.44-12Q154.44-6.76 157.24-3.70Q160.04-0.64 164.98-0.64Q169.92-0.64 173.48-4.12L173.48-4.12L173.52-9.44Q173.56-10.16 173.06-10.58Q172.56-11 171.68-11L171.68-11L171.12-11L171.12-11.40L178.44-11.40L178.44-11L177.88-11Q176.08-11 176.08-9.40L176.08-9.40L176.08-4.60Q174.40-2.52 171.46-0.98Q168.52 0.56 164.68 0.56L164.68 0.56Z"></path>
    <path transform="" stroke="none" d="M209.00-23.60L208.32-23.60Q207.44-23.60 206.80-23.02Q206.16-22.44 206.12-21.60L206.12-21.60L206.12-4.56Q206.12-2.24 206.40-0.16L206.40-0.16L206.48 0.56L206.12 0.56L185.32-19.16L185.32-2.48Q185.32-1.60 185.96-1Q186.60-0.40 187.52-0.40L187.52-0.40L188.20-0.40L188.20 0L180.64 0L180.64-0.40L181.32-0.40Q182.24-0.40 182.88-1Q183.52-1.60 183.52-2.48L183.52-2.48L183.52-19.60Q183.52-22.04 183.24-23.96L183.24-23.96L183.16-24.60L183.60-24.56L204.36-5L204.36-21.60Q204.28-22.44 203.64-23.02Q203.00-23.60 202.12-23.60L202.12-23.60L201.44-23.60L201.44-24L209.00-24L209.00-23.60Z"></path>
    <path transform="" stroke="none" d="M218.92-22.98Q222.00-24.56 225.70-24.56Q229.40-24.56 232.48-22.98Q235.56-21.40 237.38-18.52Q239.20-15.64 239.20-12Q239.20-8.36 237.38-5.48Q235.56-2.60 232.48-1.02Q229.40 0.56 226.16 0.56Q222.92 0.56 220.44-0.36Q217.96-1.28 216.14-2.92Q214.32-4.56 213.26-6.92Q212.20-9.28 212.20-12.46Q212.20-15.64 214.02-18.52Q215.84-21.40 218.92-22.98ZM218.18-3.82Q221.20-0.64 225.68-0.64Q230.16-0.64 233.20-3.82Q236.24-7 236.24-12Q236.24-17 233.20-20.18Q230.16-23.36 225.68-23.36Q221.20-23.36 218.18-20.18Q215.16-17 215.16-12Q215.16-7 218.18-3.82Z"></path>
    <path transform="" stroke="none" d="M242.76-0.40L243.32-0.40Q244.28-0.40 244.94-1.02Q245.60-1.64 245.64-2.52L245.64-2.52L245.64-21.44Q245.60-22.32 244.90-22.96Q244.20-23.60 243.24-23.60L243.24-23.60L242.76-23.60L242.76-24L251.04-24L251.04-23.60L250.56-23.60Q249.60-23.60 248.90-22.96Q248.20-22.32 248.20-21.44L248.20-21.44L248.20-1.24L254.44-1.24Q256.28-1.24 257.56-1.88Q258.84-2.52 259.50-3.40Q260.16-4.28 260.80-5.72L260.80-5.72L261.20-5.72L259.00 0L242.76 0L242.76-0.40Z"></path>
    <path transform="" stroke="none" d="M263.24-0.40L263.80-0.40Q264.88-0.40 265.68-1.04Q266.48-1.68 266.48-2.56L266.48-2.56L266.48-21.44Q266.48-22.32 265.68-22.96Q264.88-23.60 263.76-23.60L263.76-23.60L263.24-23.60L263.24-24L272.28-24L272.28-23.60L271.76-23.60Q270.68-23.60 269.90-23Q269.12-22.40 269.04-21.52L269.04-21.52L269.04-2.52Q269.08-1.64 269.88-1.02Q270.68-0.40 271.76-0.40L271.76-0.40L272.28-0.40L272.32 0L263.24 0L263.24-0.40Z"></path>
    <path transform="" stroke="none" d="M300.88-0.40L300.88-0.40L301.20-0.40L301.20 0L293.00 0L293.00-0.40L293.32-0.40Q294.08-0.40 294.48-0.92Q294.88-1.44 294.88-1.90Q294.88-2.36 294.72-2.80L294.72-2.80L292.52-8.12L282.40-8.12L280.20-2.92Q280.00-2.40 280.00-1.94Q280.00-1.48 280.40-0.94Q280.80-0.40 281.60-0.40L281.60-0.40L281.92-0.40L281.92 0L274.28 0L274.28-0.40L274.60-0.40Q275.44-0.40 276.30-0.98Q277.16-1.56 277.72-2.72L277.72-2.72Q286.48-21.44 286.84-22.32L286.84-22.32Q287.52-24 287.56-24.56L287.56-24.56L287.92-24.56L297.80-2.72Q298.96-0.40 300.88-0.40ZM287.56-20.28L282.92-9.32L292.04-9.32L287.56-20.28Z"></path>
    </g>
        </svg>
      </g></svg>